<svg width="50" height="47" viewBox="0 0 50 47" fill="none" xmlns="http://www.w3.org/2000/svg">
<path d="M15.8053 22.1485C15.3374 23.0755 14.2412 22.6248 12.8919 21.5273C11.2805 20.2159 9.43281 16.601 10.5626 14.3837C10.5626 14.3832 10.5626 14.3832 10.5626 14.3832C10.6654 14.1812 10.7927 13.9911 10.9475 13.8154C12.8013 11.707 16.0822 19.7365 16.0481 20.9065C16.0318 21.4605 15.9473 21.8674 15.8053 22.1485Z" fill="#5FBBE8"/>
<path d="M15.8053 22.1486C15.3374 23.0756 14.2412 22.625 12.8919 21.5274C11.2805 20.216 9.43281 16.6011 10.5626 14.3838C10.8564 16.6165 11.9373 20.3558 15.8053 22.1486Z" fill="#5FAEDE"/>
<path d="M13.13 15.393C13.4426 15.9778 13.8687 16.9936 13.6773 17.1165C13.4818 17.2424 12.6371 16.4402 12.1707 15.4639C11.8525 14.7974 11.6524 13.9265 11.8352 13.834C12.0424 13.7297 12.7221 14.6304 13.13 15.393Z" fill="#B1ECED"/>
<path d="M33.8775 31.2168C33.8775 35.4473 30.9367 40.4168 26.2643 40.4168C23.3688 40.4168 20.9865 38.6275 19.5935 36.2361C18.7371 34.7675 18.2539 33.0718 18.2539 31.4233C18.2539 27.089 22.9411 27.2955 25.9114 27.2955C29.1695 27.2955 33.0364 27.0438 33.7573 30.1058C33.8368 30.4362 33.8775 30.8052 33.8775 31.2168Z" fill="#5FBBE8"/>
<path d="M33.8778 31.2169C33.8778 35.4475 30.937 40.4169 26.2646 40.4169C23.3691 40.4169 20.9868 38.6277 19.5938 36.2362C22.4954 37.6149 30.7613 40.4698 33.7576 30.106C33.8371 30.4364 33.8778 30.8053 33.8778 31.2169Z" fill="#5FAEDE"/>
<path d="M19.8721 29.7428C19.2652 30.7417 19.6944 32.1631 20.7366 32.7211C21.8384 33.311 23.3368 32.7822 23.7467 31.6096C24.1357 30.4961 23.3862 29.2475 22.3119 28.8975C21.4499 28.617 20.3766 28.9124 19.8721 29.7428Z" fill="#B1ECED"/>
<path d="M39.2667 20.9965C37.9313 22.3988 36.8061 22.9687 36.276 21.6414C36.1854 21.4138 36.1116 21.1296 36.0571 20.7848C35.8764 19.6281 38.1222 11.2441 40.2265 13.0981C40.7703 13.5775 41.0727 14.2265 41.1964 14.9541C41.5508 17.0429 40.4276 19.7777 39.2667 20.9965Z" fill="#5FBBE8"/>
<path d="M39.2671 20.9965C37.9316 22.3988 36.8064 22.9687 36.2764 21.6414C37.2692 21.165 39.1265 19.6651 41.1967 14.9541C41.5511 17.0429 40.4279 19.7776 39.2671 20.9965Z" fill="#5FAEDE"/>
<path d="M38.3571 16.3736C37.93 17.6166 37.0904 19.6926 36.8582 19.6181C36.649 19.5507 36.9046 17.7255 37.6703 16.0514C38.097 15.1188 38.7268 14.1358 38.8811 14.2051C39.0725 14.2909 38.49 15.9867 38.3571 16.3736Z" fill="#B1ECED"/>
<path d="M17.8127 18.2867C17.5382 18.0066 17.3259 17.6834 17.1798 17.3376C16.8422 16.5437 16.8489 15.6301 17.2353 14.8459C17.6273 14.05 18.362 13.4857 19.2143 13.2869C19.4552 13.2298 19.7062 13.2021 19.9618 13.2078C20.5239 16.5653 17.8127 18.2867 17.8127 18.2867Z" fill="#5FBBE8"/>
<path d="M17.8126 18.2867C17.5381 18.0066 17.3258 17.6834 17.1797 17.3376C17.5223 16.7421 17.867 16.108 18.2066 15.4353C18.5814 14.6944 18.9154 13.976 19.2142 13.2864C19.4551 13.2294 19.7061 13.2016 19.9617 13.2073C19.2453 14.9004 18.5289 16.5935 17.8126 18.2867Z" fill="#5FAEDE"/>
<path d="M34.2145 21.7631C33.8906 25.953 24.3605 27.2824 19.9208 24.7229C18.6871 24.0117 17.847 22.9999 17.7055 21.667C17.0558 15.5342 21.1086 9.94603 25.7275 9.97275C27.4021 9.98251 29.3644 10.6408 30.9845 12.0831C33.0613 13.9299 34.578 17.0619 34.2145 21.7631Z" fill="#5FBBE8"/>
<path d="M34.2136 21.763C33.8898 25.9529 24.3597 27.2823 19.9199 24.7228C22.6388 25.1945 30.7341 26.2428 32.2142 22.3118C33.4871 18.9317 31.9632 14.4026 30.9836 12.0825C33.0604 13.9298 34.5772 17.0617 34.2136 21.763Z" fill="#5FAEDE"/>
<path d="M20.3815 14.0665C20.6259 14.3954 22.1426 13.7186 23.163 12.9699C24.141 12.2521 25.142 11.1175 24.9241 10.7933C24.7311 10.5055 23.611 10.9073 22.9064 11.2804C21.329 12.1144 20.1152 13.7078 20.3815 14.0665Z" fill="#B1ECED"/>
<path d="M18.1397 20.5763C18.1693 21.6965 18.8413 22.7632 19.1158 22.6923C19.4039 22.6178 19.2945 21.2797 19.1662 20.5439C19.1295 20.3327 18.9034 19.0404 18.6046 19.044C18.3694 19.047 18.1204 19.8512 18.1397 20.5763Z" fill="#B1ECED"/>
<path d="M31.7637 16.2434C31.7591 17.0845 30.8411 17.5969 29.6604 17.898C28.4166 18.215 26.881 18.2972 25.8123 18.2808C24.2823 18.2572 21.3328 17.972 20.2743 16.9874C20.0259 16.7567 19.8818 16.4874 19.8838 16.1745C19.8889 15.2635 20.2697 14.4408 20.8812 13.8468C21.4927 13.2533 22.3353 12.8889 23.2635 12.8946L28.4222 12.9249C29.501 12.9311 30.4587 13.4362 31.0687 14.2152C31.5081 14.7768 31.7677 15.4808 31.7637 16.2434Z" fill="#294F81"/>
<path d="M31.7638 16.2435C31.7592 17.0847 30.8412 17.597 29.6605 17.8981C28.4166 18.2152 26.8811 18.2974 25.8124 18.2809C24.2824 18.2573 21.3329 17.9721 20.2744 16.9876C23.3054 16.9131 28.4599 16.4413 31.0693 14.2153C31.5082 14.777 31.7678 15.4809 31.7638 16.2435Z" fill="#33487A"/>
<path d="M30.7134 15.528C30.7088 16.3651 30.0327 17.0393 29.2033 17.0346C28.5623 17.031 28.0175 16.623 27.8052 16.0516C27.7426 15.8836 27.709 15.7012 27.71 15.5105C27.7146 14.6735 28.3907 13.9993 29.2206 14.0039C29.8311 14.0075 30.354 14.378 30.5851 14.9073C30.6691 15.0974 30.715 15.3076 30.7134 15.528Z" fill="#393760"/>
<path d="M29.2117 14.0041C29.8222 14.0077 30.3542 14.3782 30.5854 14.9075C30.6689 15.0971 30.7147 15.3072 30.7137 15.5282C30.7091 16.3622 30.0376 17.0348 29.2122 17.0348C29.2092 17.0348 29.2061 17.0348 29.2036 17.0348C28.5626 17.0312 28.0178 16.6232 27.8055 16.0518C27.7428 15.8838 27.7092 15.7014 27.7103 15.5107C27.7143 14.6772 28.3859 14.0041 29.2117 14.0041ZM29.2117 13.7451C28.2479 13.7451 27.4587 14.5365 27.4531 15.5092C27.4521 15.7265 27.4893 15.9398 27.5646 16.1428C27.8187 16.8272 28.4765 17.2897 29.2015 17.2938H29.2117C30.1755 17.2938 30.9642 16.5024 30.9698 15.5297C30.9713 15.2769 30.9204 15.0318 30.8196 14.8021C30.5411 14.1644 29.9138 13.7492 29.2219 13.7451H29.2117Z" fill="#46AED2"/>
<path d="M30.5835 14.9047C30.0153 16.269 28.6249 16.2202 27.8082 16.0562C27.7451 15.8882 27.7104 15.7058 27.7109 15.5157C27.713 14.6786 28.3871 14.0019 29.2165 14.0039C29.827 14.0055 30.3504 14.3759 30.5835 14.9047Z" fill="#2F4572"/>
<path d="M28.9776 15.3928C29.1853 15.2105 29.2072 14.8927 29.0266 14.6831C28.8459 14.4735 28.5311 14.4514 28.3233 14.6337C28.1156 14.816 28.0937 15.1338 28.2744 15.3434C28.4551 15.5531 28.7699 15.5752 28.9776 15.3928Z" fill="#B1ECED"/>
<path d="M30.3875 15.8206C30.469 15.8766 30.3544 16.4038 29.9817 16.6032C29.6503 16.7809 29.2139 16.6468 29.2043 16.5497C29.1971 16.4783 29.4242 16.4603 29.8045 16.2306C30.2052 15.9891 30.331 15.782 30.3875 15.8206Z" fill="#B1ECED"/>
<path d="M24.0523 15.4894C24.0477 16.3265 23.3716 17.0007 22.5422 16.9961C21.9012 16.9925 21.3564 16.5845 21.1441 16.0131C21.0814 15.845 21.0478 15.6626 21.0489 15.472C21.0534 14.6349 21.7296 13.9607 22.5595 13.9654C23.1699 13.969 23.6928 14.3394 23.924 14.8687C24.008 15.0583 24.0538 15.2685 24.0523 15.4894Z" fill="#393760"/>
<path d="M22.5628 13.9614C23.1733 13.965 23.6926 14.3396 23.9238 14.8684C24.0073 15.058 24.0531 15.2682 24.0521 15.4891C24.0475 16.3231 23.3759 16.9957 22.5506 16.9957C22.5475 16.9957 22.5445 16.9957 22.5419 16.9957C21.9009 16.9921 21.3561 16.5841 21.1438 16.0127C21.0812 15.8447 21.0476 15.6623 21.0486 15.4717C21.0532 14.6382 21.7375 13.9614 22.5628 13.9614ZM22.5506 13.7061C21.5868 13.7061 20.7976 14.4974 20.792 15.4701C20.791 15.6875 20.8282 15.9007 20.9035 16.1037C21.1576 16.7881 21.8154 17.2506 22.5404 17.2547H22.5506C23.5144 17.2547 24.3031 16.4634 24.3087 15.4907C24.3102 15.2378 24.2593 14.9927 24.1585 14.763C23.88 14.1254 23.2527 13.7102 22.5608 13.7061H22.5506Z" fill="#46AED2"/>
<path d="M23.9224 14.8656C23.3542 16.2299 21.9637 16.1811 21.1471 16.0172C21.0839 15.8491 21.0493 15.6667 21.0498 15.4766C21.0518 14.6395 21.726 13.9628 22.5553 13.9648C23.1658 13.9664 23.6892 14.3374 23.9224 14.8656Z" fill="#2F4572"/>
<path d="M22.4881 14.9773C22.4866 15.2553 22.2621 15.4789 21.9866 15.4773C21.7112 15.4758 21.4897 15.2492 21.4912 14.9712C21.4927 14.6932 21.7173 14.4697 21.9927 14.4712C22.2677 14.4727 22.4897 14.6994 22.4881 14.9773Z" fill="#B1ECED"/>
<path d="M23.7264 15.7821C23.8078 15.8381 23.6933 16.3653 23.3206 16.5647C22.9891 16.7425 22.5528 16.6084 22.5431 16.5113C22.536 16.4398 22.7631 16.4218 23.1434 16.1922C23.5441 15.9501 23.6699 15.743 23.7264 15.7821Z" fill="#B1ECED"/>
<path d="M26.2873 13.2569C26.3011 13.3577 25.6255 13.5909 24.9259 13.6521C23.7915 13.7507 22.7544 13.3828 22.7707 13.2559C22.7778 13.1978 23.4952 13.1948 24.9284 13.1917C26.0801 13.1891 26.2797 13.204 26.2873 13.2569Z" fill="#296ABD"/>
<path d="M17.2573 15.3965C17.2273 15.3724 16.5175 14.7881 16.0863 13.653C15.6917 12.614 15.4661 10.8973 16.6316 8.61523L17.0307 8.82283C16.1682 10.5108 15.987 12.1248 16.5058 13.4907C16.8943 14.5127 17.5322 15.0379 17.5383 15.0435L17.2573 15.3965Z" fill="#5FBBE8"/>
<path d="M17.681 9.11461C18.1585 8.78717 18.2826 8.13108 17.9581 7.64919C17.6337 7.1673 16.9836 7.04209 16.5061 7.36953C16.0287 7.69696 15.9046 8.35305 16.229 8.83494C16.5535 9.31683 17.2036 9.44204 17.681 9.11461Z" fill="#294F81"/>
<path d="M16.4395 7.93333C16.4379 8.24627 16.6879 8.50063 16.998 8.50217C17.3081 8.50371 17.5601 8.25141 17.5616 7.93847C17.5631 7.62554 17.3132 7.37118 17.0031 7.36964C16.693 7.36809 16.441 7.6204 16.4395 7.93333Z" fill="#296ABD"/>
<path d="M25.7862 20.8752C25.0653 20.8916 24.4991 20.6665 24.0862 20.369C23.3444 19.8356 23.0954 19.069 23.3286 19.0464C23.6916 19.0119 24.5689 19.3963 25.5484 19.3742C26.6742 19.3485 27.4353 19.0674 28.0137 19.0325C28.0397 19.0304 28.0646 19.0294 28.0896 19.0289C28.6771 19.015 27.9979 20.8248 25.7862 20.8752Z" fill="#294F81"/>
<path d="M25.786 20.8752C25.065 20.8916 24.4989 20.6666 24.0859 20.369C25.062 20.2267 26.9784 19.8557 28.0135 19.032C28.0394 19.0299 28.0644 19.0289 28.0893 19.0284C28.6769 19.015 27.9977 20.8248 25.786 20.8752Z" fill="#33487A"/>
</svg>
