<svg width="309" height="206" viewBox="0 0 309 206" fill="none" xmlns="http://www.w3.org/2000/svg">
<g clip-path="url(#clip0_169_1867)">
<g opacity="0.2">
<path opacity="0.2" d="M300.101 188.403C300.101 192.334 234.465 195.521 153.5 195.521C72.5343 195.521 6.89844 192.334 6.89844 188.403C6.89844 187.208 12.9932 186.078 23.7534 185.084H283.247C294.006 186.078 300.101 187.208 300.101 188.403Z" fill="#000072"/>
</g>
<path d="M133.92 185.528H108.423C107.634 185.528 106.995 184.888 106.995 184.099C106.995 183.705 107.156 183.347 107.414 183.089C107.673 182.831 108.03 182.671 108.424 182.671H135.75L135.036 185.527L133.92 185.528Z" fill="#000072"/>
<path d="M67.3811 123.936C65.6487 123.643 64.007 124.81 63.7148 126.542L59.9678 148.702L66.2404 149.763L69.9875 127.603C70.2806 125.87 69.1135 124.229 67.3811 123.936Z" fill="#4089FF"/>
<path d="M69.9893 127.602L69.3722 131.253L63.0986 130.192L63.7157 126.541C64.0089 124.811 65.6496 123.644 67.3802 123.937C69.1153 124.23 70.2824 125.871 69.9893 127.602Z" fill="#FFCE00"/>
<path d="M69.3741 132.613C69.2988 132.613 69.2225 132.607 69.1454 132.594L62.8719 131.533C62.1304 131.408 61.6313 130.706 61.7565 129.964L62.3736 126.314C62.576 125.118 63.2312 124.073 64.2204 123.37C65.2087 122.668 66.412 122.391 67.6081 122.594C68.8051 122.797 69.8523 123.453 70.5557 124.441C71.259 125.429 71.5348 126.633 71.3325 127.829L70.7154 131.479C70.6019 132.144 70.0257 132.613 69.3741 132.613ZM64.6678 129.076L68.257 129.683L68.6472 127.375C68.728 126.896 68.6182 126.415 68.3359 126.019C68.0537 125.623 67.6335 125.36 67.1525 125.279C66.6734 125.198 66.1924 125.308 65.7958 125.589C65.4002 125.87 65.137 126.289 65.0562 126.768L64.6678 129.076ZM69.9894 127.602H69.9939H69.9894Z" fill="#2C2C31"/>
<path d="M66.2424 151.126C66.1671 151.126 66.0908 151.12 66.0155 151.107L59.7411 150.046C59.3853 149.987 59.0677 149.787 58.8581 149.493C58.6493 149.199 58.5649 148.833 58.6257 148.477L61.7557 129.965C61.8156 129.61 62.0153 129.292 62.3093 129.082C62.6033 128.874 62.9699 128.79 63.3248 128.85L69.5983 129.911C70.3397 130.036 70.8389 130.738 70.7136 131.48L67.5837 149.992C67.5238 150.348 67.3241 150.665 67.0301 150.875C66.7996 151.039 66.5228 151.126 66.2424 151.126ZM61.537 147.589L65.1271 148.196L67.8033 132.368L64.2141 131.761L61.537 147.589Z" fill="#2C2C31"/>
<path d="M73.5836 142.422C73.5083 142.422 73.4321 142.416 73.3549 142.403C72.6135 142.278 72.1144 141.576 72.2396 140.834L72.9311 136.746C73.2497 134.864 71.9764 133.073 70.0943 132.755L67.9607 132.395C67.2193 132.269 66.7202 131.567 66.8454 130.826C66.9707 130.084 67.6758 129.587 68.4145 129.71L70.548 130.07C73.9112 130.639 76.1836 133.838 75.6155 137.2L74.924 141.288C74.8115 141.953 74.2352 142.422 73.5836 142.422Z" fill="#2C2C31"/>
<path d="M41.7884 157.457L52.1953 155.252L45.4501 123.42L35.0432 125.625L41.7884 157.457Z" fill="#2C2C31"/>
<path d="M41.7876 158.825C41.5262 158.825 41.2676 158.749 41.0452 158.604C40.7421 158.407 40.5307 158.099 40.4553 157.746L34.0312 127.429C33.699 125.86 34.7054 124.311 36.2745 123.978L43.6516 122.416C45.2215 122.083 46.7688 123.09 47.1019 124.659L53.527 154.976C53.6831 155.712 53.213 156.434 52.477 156.589L42.0698 158.795C41.9763 158.815 41.8819 158.825 41.7876 158.825ZM44.255 125.075C44.2423 125.075 44.2287 125.076 44.216 125.078L36.8399 126.641C36.7391 126.663 36.6738 126.763 36.6956 126.863L42.8375 155.849L50.5812 154.208L44.4384 125.223C44.4193 125.135 44.3413 125.075 44.255 125.075Z" fill="#5D5DD3"/>
<path d="M38.9706 124.799L35.042 125.631" stroke="#2C2C31" stroke-width="17.2883" stroke-miterlimit="10" stroke-linecap="round" stroke-linejoin="round"/>
<path d="M40.3193 131.165L36.3916 131.998" stroke="#2C2C31" stroke-width="17.2883" stroke-miterlimit="10" stroke-linecap="round" stroke-linejoin="round"/>
<path d="M41.6688 137.532L37.7402 138.364" stroke="#2C2C31" stroke-width="17.2883" stroke-miterlimit="10" stroke-linecap="round" stroke-linejoin="round"/>
<path d="M43.0175 143.898L39.0898 144.73" stroke="#2C2C31" stroke-width="17.2883" stroke-miterlimit="10" stroke-linecap="round" stroke-linejoin="round"/>
<path d="M44.3661 150.264L40.4385 151.096" stroke="#2C2C31" stroke-width="17.2883" stroke-miterlimit="10" stroke-linecap="round" stroke-linejoin="round"/>
<path d="M45.7157 156.63L41.7871 157.463" stroke="#2C2C31" stroke-width="17.2883" stroke-miterlimit="10" stroke-linecap="round" stroke-linejoin="round"/>
<path d="M68.9476 153.416H38.2441V183.574H68.9476V153.416Z" fill="#F91228"/>
<path d="M68.9473 185.143H38.2439C37.3772 185.143 36.6748 184.44 36.6748 183.574V153.416C36.6748 152.549 37.3772 151.847 38.2439 151.847H68.9473C69.814 151.847 70.5164 152.549 70.5164 153.416V183.574C70.5164 184.44 69.814 185.143 68.9473 185.143ZM39.8129 182.005H67.3783V154.985H39.8129V182.005Z" fill="#2C2C31"/>
<g opacity="0.3">
<path opacity="0.3" d="M70.1302 155.026V157.563C70.1302 158.779 69.475 159.838 68.4949 160.411V183.575H37.7906V178.841H56.3526C61.3166 178.841 65.3405 174.817 65.3405 169.853C65.3405 164.889 61.3166 160.865 56.3526 160.865H39.4577C37.6336 160.865 36.1553 159.387 36.1553 157.563V155.026C36.1553 153.201 37.6336 151.723 39.4577 151.723H66.827C68.6519 151.723 70.1302 153.201 70.1302 155.026Z" fill="#000072"/>
</g>
<path d="M67.2801 147.802H39.9108C38.0867 147.802 36.6084 149.28 36.6084 151.104V153.64C36.6084 155.464 38.0867 156.942 39.9108 156.942H67.2792C69.1033 156.942 70.5816 155.464 70.5816 153.64V151.104C70.5825 149.281 69.1042 147.802 67.2801 147.802Z" fill="#F91228"/>
<g opacity="0.5">
<path opacity="0.5" d="M70.5843 150.196V152.733C70.5843 152.973 70.5608 153.208 70.5099 153.431C70.1923 151.941 68.8665 150.823 67.282 150.823H39.9118C38.3273 150.823 37.0014 151.941 36.6838 153.431C36.633 153.208 36.6094 152.972 36.6094 152.733V150.196C36.6094 148.372 38.0877 146.894 39.9118 146.894H67.2811C69.1051 146.894 70.5843 148.372 70.5843 150.196Z" fill="white"/>
</g>
<path d="M67.2798 158.512H39.9105C37.2243 158.512 35.0391 156.327 35.0391 153.641V151.105C35.0391 148.419 37.2243 146.234 39.9105 146.234H67.2789C69.9651 146.234 72.1504 148.419 72.1504 151.105V153.641C72.1513 156.327 69.966 158.512 67.2798 158.512ZM39.9105 149.371C38.9549 149.371 38.1772 150.149 38.1772 151.104V153.64C38.1772 154.596 38.9549 155.373 39.9105 155.373H67.2789C68.2345 155.373 69.0131 154.596 69.0131 153.64V151.104C69.0131 150.149 68.2354 149.371 67.2789 149.371H39.9105Z" fill="#2C2C31"/>
<path d="M54.5333 122.147C52.7764 122.147 51.3525 123.571 51.3525 125.328V147.803H57.7141V125.328C57.7141 123.571 56.2893 122.147 54.5333 122.147Z" fill="#FFCE00"/>
<path d="M57.7159 125.327V129.03H51.3525V125.327C51.3525 123.571 52.7764 122.148 54.5315 122.148C56.2921 122.148 57.7159 123.571 57.7159 125.327Z" fill="#F91228"/>
<path d="M57.7159 130.39H51.3525C50.6011 130.39 49.9912 129.781 49.9912 129.028V125.326C49.9912 122.822 52.0286 120.786 54.5314 120.786C57.0371 120.786 59.0762 122.823 59.0762 125.326V129.028C59.0771 129.781 58.4673 130.39 57.7159 130.39ZM52.7137 127.667H56.3546V125.326C56.3546 124.324 55.537 123.508 54.5324 123.508C53.5296 123.508 52.7146 124.324 52.7146 125.326V127.667H52.7137Z" fill="#000072"/>
<path d="M57.7159 149.165H51.3525C50.6011 149.165 49.9912 148.556 49.9912 147.804V129.028C49.9912 128.276 50.6011 127.667 51.3525 127.667H57.7159C58.4673 127.667 59.0771 128.276 59.0771 129.028V147.804C59.0771 148.556 58.4673 149.165 57.7159 149.165ZM52.7137 146.442H56.3546V130.389H52.7137V146.442Z" fill="#000072"/>
<path d="M189.065 184.099H214.561C221.649 184.099 228.022 179.787 230.658 173.208C231.49 171.133 231.903 168.943 231.903 166.757C231.903 164.085 231.287 161.422 230.063 158.982L215.927 130.803C210.489 119.963 200.093 112.629 188.292 110.995L163.362 110.649H162.749L137.819 110.995C126.018 112.629 115.622 119.964 110.184 130.803L96.0479 159.211V184.066H128.619" fill="#2C2C31"/>
<g opacity="0.35">
<path opacity="0.35" d="M205.847 166.629H187.884V161.411H211.065C211.065 164.293 208.728 166.629 205.847 166.629Z" fill="white"/>
</g>
<g opacity="0.3">
<path opacity="0.3" d="M231.904 166.756C231.904 168.94 231.49 171.133 230.658 173.206C228.02 179.786 221.648 184.098 214.562 184.098H189.066L128.62 184.066H96.0479V175.431H128.62L189.066 175.466H214.562C221.649 175.466 228.02 171.153 230.658 164.574C230.937 163.871 231.172 163.157 231.358 162.436C231.723 163.85 231.904 165.303 231.904 166.756Z" fill="#000072"/>
</g>
<g opacity="0.5">
<path opacity="0.5" d="M231.904 166.756C231.904 167.537 231.851 168.32 231.744 169.095C231.487 167.224 230.926 165.397 230.062 163.672L215.925 135.492C214.565 132.782 212.897 130.292 210.973 128.054C204.212 120.19 194.28 115.769 183.911 115.625L163.362 115.339H162.747L142.198 115.625C131.829 115.769 121.897 120.19 115.136 128.054C113.212 130.291 111.543 132.782 110.184 135.492L96.0469 163.901V159.21L110.184 130.805C111.543 128.094 113.213 125.603 115.137 123.365C121.898 115.5 131.831 111.078 142.2 110.935L162.747 110.649H163.362L183.909 110.935C194.279 111.079 204.212 115.501 210.972 123.365C212.896 125.603 214.565 128.094 215.924 130.805L230.061 158.981C231.287 161.423 231.904 164.085 231.904 166.756Z" fill="white"/>
</g>
<path d="M214.562 185.526H189.066C188.277 185.526 187.638 184.887 187.638 184.098C187.638 183.309 188.277 182.67 189.066 182.67H214.562C221.102 182.67 226.901 178.747 229.333 172.675C230.091 170.786 230.476 168.795 230.476 166.756C230.476 164.29 229.892 161.823 228.787 159.621L214.651 131.442C209.48 121.134 199.59 114.028 188.183 112.42L163.343 112.076H162.75L142.225 112.36C132.099 112.501 122.62 116.85 116.221 124.294C114.351 126.468 112.75 128.873 111.462 131.441L97.4771 159.544V182.635H128.621C129.409 182.635 130.048 183.275 130.048 184.064C130.048 184.852 129.408 185.492 128.621 185.492H94.6221V158.873L108.907 130.165C110.302 127.385 112.033 124.784 114.055 122.433C120.989 114.368 131.242 109.657 142.186 109.505L163.362 109.22L188.4 109.568L188.488 109.58C200.863 111.293 211.598 118.988 217.204 130.163L231.34 158.341C232.643 160.94 233.332 163.849 233.332 166.757C233.332 169.162 232.878 171.511 231.984 173.739C229.115 180.899 222.276 185.526 214.562 185.526Z" fill="#2C2C31"/>
<path d="M161.493 121.274H161.491C155.939 121.274 151.438 116.773 151.438 111.22V99.8931H171.547V111.22C171.547 116.773 167.046 121.274 161.493 121.274Z" fill="#FFCFAE"/>
<path d="M161.491 122.944C155.161 122.944 150.01 117.793 150.01 111.462V98.707H172.973V111.462C172.973 117.793 167.822 122.944 161.491 122.944ZM152.866 101.563V111.461C152.866 116.217 156.735 120.087 161.491 120.087C166.248 120.087 170.117 116.217 170.117 111.461V101.563H152.866Z" fill="#2C2C31"/>
<path d="M131.334 85.7281C137.269 85.7281 142.08 80.9167 142.08 74.9815C142.08 69.0463 137.269 64.2349 131.334 64.2349C125.398 64.2349 120.587 69.0463 120.587 74.9815C120.587 80.9167 125.398 85.7281 131.334 85.7281Z" fill="#FFCFAE"/>
<g opacity="0.3">
<path opacity="0.3" d="M142.08 74.9821C142.08 80.9171 137.269 85.7269 131.334 85.7269C125.398 85.7269 120.587 80.9181 120.587 74.9821C120.587 73.9566 120.731 72.9638 120.999 72.0264C122.282 76.5258 126.424 79.8172 131.334 79.8172C136.243 79.8172 140.385 76.5258 141.668 72.0264C141.936 72.9638 142.08 73.9566 142.08 74.9821Z" fill="#000072"/>
</g>
<path d="M131.333 87.1552C124.62 87.1552 119.158 81.6939 119.158 74.9802C119.158 68.2665 124.62 62.8052 131.333 62.8052C138.046 62.8052 143.507 68.2665 143.507 74.9802C143.507 81.6939 138.046 87.1552 131.333 87.1552ZM131.333 65.6629C126.195 65.6629 122.014 69.8428 122.014 74.9811C122.014 80.1194 126.194 84.2993 131.333 84.2993C136.471 84.2993 140.651 80.1194 140.651 74.9811C140.651 69.8428 136.471 65.6629 131.333 65.6629Z" fill="#2C2C31"/>
<path d="M195.045 54.8033C184.522 58.0585 172.128 47.2601 171.92 48.2057C171.526 49.9763 173.734 52.0608 175.178 52.9611C175.598 53.2215 175.717 53.6934 175.592 54.0873C175.492 54.4176 175.221 54.6926 174.814 54.757C168.469 55.7444 155.688 70.7408 154.034 77.498H131.891C131.891 77.498 120.724 52.1951 124.801 36.2267C126.025 31.4333 129.922 27.954 137.094 30.436C137.094 30.436 140.127 25.923 145.227 21.4082C153.524 14.0683 167.281 6.72573 182.322 18.8154C198.395 31.7373 204.145 31.3435 204.145 31.3435C204.145 31.3435 208.737 50.5689 195.045 54.8033Z" fill="#94452F"/>
<g opacity="0.35">
<path opacity="0.35" d="M175.33 54.5062C175.199 54.6323 175.024 54.7231 174.812 54.7558C174.211 54.8483 173.557 55.0679 172.857 55.3919C172.173 54.5389 171.722 53.5778 171.918 52.6939C171.985 52.3954 173.271 53.272 175.33 54.5062Z" fill="white"/>
<path opacity="0.35" d="M172.786 55.6959L172.666 55.5452C171.831 54.5025 171.49 53.4979 171.68 52.6403C171.703 52.5387 171.77 52.457 171.864 52.4171C172.155 52.2919 172.602 52.555 174.266 53.5714C174.627 53.792 175.025 54.0352 175.457 54.2938L175.732 54.459L175.5 54.6813C175.328 54.8474 175.103 54.9563 174.852 54.9971C174.294 55.0833 173.657 55.2902 172.96 55.6133L172.786 55.6959ZM172.13 52.9144C172.038 53.6903 172.483 54.4953 172.931 55.0897C173.602 54.7929 174.222 54.5996 174.775 54.5143C174.799 54.5107 174.822 54.5062 174.844 54.4998C174.548 54.3201 174.269 54.1504 174.01 53.9916C173.214 53.5043 172.454 53.0405 172.13 52.9144Z" fill="#000072"/>
</g>
<g opacity="0.35">
<path opacity="0.35" d="M195.044 59.2924C187.851 61.5167 179.782 57.1761 175.332 54.5063C175.455 54.3901 175.543 54.2431 175.592 54.0861C175.715 53.6913 175.597 53.2203 175.177 52.9599C173.734 52.0605 171.525 49.9751 171.919 48.2046C172.128 47.259 184.522 58.0573 195.044 54.8021C202.265 52.5706 204.4 46.1682 204.807 40.6143C205.211 46.5992 204.355 56.4138 195.044 59.2924Z" fill="white"/>
<path opacity="0.35" d="M190.78 60.16C185.062 60.16 179.333 57.1934 175.205 54.7168L174.926 54.5498L175.163 54.3275C175.252 54.244 175.319 54.1351 175.357 54.0126C175.442 53.7403 175.38 53.3737 175.048 53.1677C173.464 52.1804 171.261 50.0305 171.68 48.1511C171.702 48.0503 171.77 47.9687 171.864 47.9278C172.156 47.8044 172.602 48.0658 174.265 49.0812C178.459 51.644 187.184 56.9783 194.973 54.5662C202.216 52.3274 204.186 45.7335 204.563 40.5952L205.052 40.5961C205.444 46.3969 204.676 56.569 195.118 59.5238L195.045 59.2897L195.118 59.5238C193.689 59.9676 192.235 60.16 190.78 60.16ZM175.698 54.44C180.792 57.472 188.233 61.1419 194.972 59.0574C202.665 56.6788 204.461 49.4016 204.626 43.7678C203.692 48.3416 201.199 53.1568 195.117 55.0363C187.115 57.511 178.263 52.1005 174.008 49.5005C173.212 49.0141 172.454 48.5504 172.13 48.4242C171.94 50.0114 173.946 51.9036 175.306 52.7512C175.787 53.0497 175.996 53.6151 175.825 54.1596C175.794 54.2594 175.752 54.3529 175.698 54.44Z" fill="#000072"/>
</g>
<g opacity="0.3">
<path opacity="0.3" d="M175.592 54.0861C175.491 54.4165 175.221 54.6914 174.813 54.7559C168.468 55.7432 155.688 70.7397 154.033 77.4969H135.591C129.955 61.9433 134.176 44.9395 134.176 44.9395C134.176 44.9395 164.693 51.7076 175.592 54.0861Z" fill="#000072"/>
</g>
<path d="M197.991 85.7281C203.926 85.7281 208.737 80.9167 208.737 74.9815C208.737 69.0463 203.926 64.2349 197.991 64.2349C192.056 64.2349 187.244 69.0463 187.244 74.9815C187.244 80.9167 192.056 85.7281 197.991 85.7281Z" fill="#FFCFAE"/>
<g opacity="0.3">
<path opacity="0.3" d="M208.737 74.9821C208.737 80.9171 203.926 85.7269 197.991 85.7269C192.056 85.7269 187.244 80.9181 187.244 74.9821C187.244 73.9566 187.388 72.9638 187.656 72.0264C188.939 76.5239 193.081 79.8172 197.991 79.8172C202.9 79.8172 207.042 76.5239 208.325 72.0264C208.593 72.9638 208.737 73.9566 208.737 74.9821Z" fill="#000072"/>
</g>
<path d="M197.99 87.1552C191.278 87.1552 185.815 81.6939 185.815 74.9802C185.815 68.2665 191.277 62.8052 197.99 62.8052C204.704 62.8052 210.165 68.2665 210.165 74.9802C210.165 81.6939 204.703 87.1552 197.99 87.1552ZM197.99 65.6629C192.852 65.6629 188.671 69.8428 188.671 74.9811C188.671 80.1194 192.851 84.2993 197.99 84.2993C203.13 84.2993 207.31 80.1194 207.31 74.9811C207.31 69.8428 203.129 65.6629 197.99 65.6629Z" fill="#2C2C31"/>
<path d="M197.031 77.4985C197.031 77.4985 205.392 56.6478 201.313 40.6794C200.088 35.8842 196.512 32.0373 191.828 30.4355" fill="#94452F"/>
<path d="M197.031 78.9263C196.854 78.9263 196.674 78.8936 196.5 78.8237C195.769 78.5306 195.413 77.6993 195.706 76.967C195.788 76.7628 203.844 56.354 199.93 41.0327C198.823 36.6994 195.623 33.2427 191.367 31.7871C190.621 31.5321 190.223 30.7199 190.479 29.9739C190.734 29.2279 191.545 28.8304 192.292 29.0845C197.462 30.8533 201.353 35.055 202.698 40.3257C206.844 56.5591 198.706 77.1603 198.358 78.0287C198.133 78.5878 197.597 78.9263 197.031 78.9263Z" fill="#2C2C31"/>
<g opacity="0.3">
<path opacity="0.3" d="M171.546 99.8931V110.302C169.324 110.534 167.023 110.648 164.663 110.648C159.964 110.648 155.493 110.197 151.438 109.256V99.8931H171.546V99.8931Z" fill="#000072"/>
</g>
<path d="M197.724 83.0673C197.724 99.2217 182.802 106.13 164.395 106.13C145.988 106.13 131.066 99.2208 131.066 83.0673C131.066 79.2476 133.352 66.7767 134.764 59.4314C135.225 57.0374 135.932 54.7052 136.873 52.4727C138.056 49.6685 139.615 47.0241 141.533 44.6356C144.231 41.2751 147.687 38.2876 151.457 38.2876H177.333C181.103 38.2876 184.559 41.2742 187.257 44.6356C190.7 48.9262 192.983 54.0291 194.025 59.4314C194.069 59.661 194.113 59.8924 194.159 60.132C195.578 67.5445 197.724 79.3665 197.724 83.0673Z" fill="#FFCFAE"/>
<path d="M143.803 62.0765C142.857 62.5693 141.874 61.4785 142.467 60.5919C143.747 58.6807 145.819 56.6461 148.947 56.3121C154.292 55.7431 156.467 58.3122 155.457 60.0065C154.789 61.1264 151.402 60.1581 148.722 60.4966C146.805 60.738 145.122 61.3905 143.803 62.0765Z" fill="#2C2C31"/>
<path d="M185.022 62.3725C185.924 62.8426 186.861 61.8017 186.295 60.9568C185.074 59.1345 183.098 57.1934 180.115 56.8758C175.017 56.3331 172.943 58.7833 173.906 60.3987C174.543 61.4668 177.773 60.5439 180.329 60.866C182.159 61.0956 183.764 61.7173 185.022 62.3725Z" fill="#2C2C31"/>
<g opacity="0.3">
<path opacity="0.3" d="M197.991 83.0672C197.991 99.2216 183.069 106.13 164.662 106.13C146.255 106.13 131.333 99.2207 131.333 83.0672C131.333 82.6062 131.367 82.0209 131.426 81.333C132.709 95.941 147.1 102.232 164.661 102.232C182.222 102.232 196.61 95.9437 197.895 81.3357C197.957 82.0236 197.991 82.608 197.991 83.0672Z" fill="#000072"/>
</g>
<path d="M164.662 107.56C159.714 107.56 155.125 107.071 151.023 106.109C137.405 102.928 129.905 94.7448 129.905 83.068C129.905 81.9037 130.092 80.0161 130.476 77.299C131.24 71.8813 132.612 64.4461 133.63 59.1627C134.73 53.4554 137.17 48.122 140.685 43.7406C144.354 39.1759 148.068 36.8608 151.724 36.8608H177.6C181.256 36.8608 184.97 39.175 188.638 43.7397C192.154 48.1229 194.595 53.4554 195.694 59.1627C196.712 64.447 198.084 71.8822 198.848 77.3C199.232 80.0161 199.419 81.9037 199.419 83.0689C199.419 94.7457 191.919 102.929 178.301 106.11C174.199 107.071 169.61 107.56 164.662 107.56ZM151.724 39.7168C148.301 39.7168 145.043 42.8767 142.912 45.5284C139.687 49.5486 137.447 54.45 136.434 59.7026C135.423 64.9534 134.06 72.3377 133.304 77.6983C132.944 80.2466 132.761 82.0534 132.761 83.068C132.761 96.1614 143.046 101.312 151.673 103.329H151.673C155.562 104.241 159.932 104.703 164.662 104.703C169.392 104.703 173.761 104.241 177.65 103.329C186.278 101.312 196.563 96.1614 196.563 83.068C196.563 82.0516 196.381 80.2457 196.02 77.6983C195.265 72.3387 193.901 64.9534 192.89 59.7017C191.878 54.45 189.637 49.5486 186.411 45.5275C184.281 42.8776 181.023 39.7168 177.6 39.7168H151.724Z" fill="#2C2C31"/>
<g opacity="0.3">
<path opacity="0.3" d="M171.919 53.3594C171.525 55.1299 173.733 57.2144 175.177 58.1165C175.944 58.5929 175.708 59.7708 174.814 59.9106C168.956 60.8226 149.65 61.2482 137.14 52.4727C138.323 49.6685 139.882 47.0241 141.8 44.6356C144.498 41.2751 147.954 38.2876 151.724 38.2876H177.6C181.37 38.2876 184.826 41.2742 187.524 44.6356C190.967 48.9262 193.25 54.0291 194.292 59.4314C194.336 59.661 194.38 59.8924 194.426 60.132C184.042 62.7946 172.123 52.4319 171.919 53.3594Z" fill="#000072"/>
</g>
<path d="M137.092 30.4357C137.092 30.4357 158.036 -0.707893 182.32 18.8133C198.393 31.7352 204.146 31.3414 204.146 31.3414C204.146 31.3414 208.737 50.5668 195.046 54.8021C184.523 58.0573 172.13 47.2571 171.92 48.2027C171.526 49.976 173.734 52.0605 175.177 52.9598C175.944 53.439 175.708 54.6142 174.813 54.754C168.468 55.7422 146.351 56.1606 134.177 44.9394L137.092 30.4357Z" fill="#94452F"/>
<path d="M190.863 56.8367C185.577 56.8367 180.348 54.4727 176.64 52.4208C177.007 52.9472 177.151 53.6088 177.016 54.273C176.813 55.2668 176.034 56.01 175.031 56.1661C168.199 57.2306 145.851 57.6453 133.208 45.9903C132.628 45.4558 132.592 44.5528 133.126 43.9729C133.66 43.393 134.563 43.3549 135.143 43.8913C146.433 54.2976 166.668 54.2195 173.453 53.4908C171.838 52.2166 170.033 50.1031 170.524 47.8942C170.629 47.4223 170.956 47.0276 171.4 46.8388C172.264 46.4731 172.87 46.8433 174.882 48.073C178.927 50.545 187.343 55.6915 194.621 53.4381C205.219 50.1603 203.611 36.4452 202.947 32.6491C200.378 32.1772 193.898 29.9548 181.424 19.926C175.351 15.0445 168.974 13.0698 162.47 14.059C148.546 16.1753 138.376 31.081 138.276 31.2316C137.835 31.8859 136.949 32.0602 136.294 31.62C135.639 31.1799 135.465 30.2933 135.905 29.638C136.346 28.9819 146.889 13.5381 162.04 11.2358C169.369 10.1223 176.491 12.2966 183.212 17.6999C198.26 29.7978 203.993 29.9139 204.087 29.9139C204.087 29.9139 204.087 29.9139 204.087 29.9139L205.294 29.8313L205.533 31.0084C207.228 38.1077 207.306 52.5025 195.465 56.1652C193.952 56.6353 192.404 56.8367 190.863 56.8367Z" fill="#000072"/>
<path d="M211.065 162.839H192.568C191.78 162.839 191.141 162.199 191.141 161.411C191.141 160.622 191.78 159.982 192.568 159.982H211.065C211.853 159.982 212.492 160.622 212.492 161.411C212.492 162.199 211.853 162.839 211.065 162.839Z" fill="#2C2C31"/>
<g opacity="0.5">
<path opacity="0.5" d="M204.807 40.1241C204.614 37.3072 204.144 35.3406 204.144 35.3406C204.144 35.3406 198.394 35.7345 182.321 22.8126C180.004 20.9495 177.715 19.5474 175.476 18.5374C175.819 18.9911 176.006 19.4784 176.006 19.983C176.006 22.4342 171.615 24.418 166.197 24.418C160.779 24.418 156.388 22.4333 156.388 19.983C156.388 19.1889 156.849 18.4421 157.656 17.7977C152.808 19.483 148.574 22.4441 145.226 25.4053C140.126 29.9201 137.092 34.4331 137.092 34.4331C129.92 31.9511 126.023 35.4305 124.799 40.2239C124.338 42.0335 124.072 43.9637 123.964 45.9629C123.786 42.3674 123.998 38.8708 124.799 35.7336C126.023 30.9402 129.92 27.4608 137.092 29.9428C137.092 29.9428 140.126 25.4298 145.226 20.915C153.522 13.5751 167.279 6.23257 182.32 18.3223C198.394 31.2442 204.143 30.8503 204.143 30.8503C204.143 30.8503 205.171 35.1455 204.807 40.1241Z" fill="white"/>
</g>
<path d="M131.891 78.9263C131.343 78.9263 130.819 78.6087 130.584 78.0751C130.12 77.0233 119.265 52.1333 123.417 35.8745C124.201 32.8081 125.855 30.5194 128.202 29.2561C130.516 28.011 133.314 27.8459 136.531 28.7624C139.044 25.3448 148.777 13.2542 162.043 11.2377C169.372 10.1242 176.494 12.2986 183.215 17.7018C198.264 29.8006 203.996 29.9159 204.09 29.9159C204.09 29.9159 204.09 29.9159 204.09 29.9159L205.297 29.8333L205.536 31.0103C207.231 38.1097 207.309 52.5044 195.468 56.1671C188.758 58.2417 181.431 55.0709 176.642 52.421C177.009 52.9473 177.153 53.6089 177.018 54.2732C176.815 55.2669 176.036 56.0101 175.033 56.1662C168.202 57.2307 145.853 57.6454 133.21 45.9904C132.63 45.4559 132.594 44.5529 133.128 43.973C133.662 43.3932 134.565 43.356 135.145 43.8914C146.435 54.2977 166.67 54.2196 173.455 53.4909C171.84 52.2168 170.035 50.1032 170.526 47.8944C170.631 47.4225 170.959 47.0277 171.402 46.8389C172.266 46.4732 172.872 46.8435 174.884 48.0731C178.929 50.5452 187.345 55.6916 194.623 53.4383C205.221 50.1604 203.613 36.4453 202.949 32.6493C200.38 32.1774 193.9 29.9549 181.426 19.9261C175.357 15.0483 168.985 13.0727 162.484 14.0573C148.581 16.1627 138.378 31.082 138.277 31.2326L137.663 32.1429L136.625 31.7844C133.758 30.7925 131.38 30.7871 129.555 31.769C127.502 32.8743 126.588 34.9951 126.184 36.5787C122.277 51.8792 133.087 76.6721 133.197 76.9207C133.515 77.6422 133.188 78.4853 132.466 78.8038C132.278 78.8873 132.083 78.9263 131.891 78.9263Z" fill="#2C2C31"/>
<path d="M200.436 184.099H122.63C121.09 184.099 119.841 182.851 119.841 181.31C119.841 179.769 121.09 178.52 122.63 178.52H200.436C201.977 178.52 203.226 179.769 203.226 181.31C203.226 182.851 201.977 184.099 200.436 184.099Z" fill="#ADB9C4"/>
<g opacity="0.3">
<path opacity="0.3" d="M203.224 181.31C203.224 182.078 202.913 182.778 202.406 183.28C201.902 183.784 201.206 184.098 200.436 184.098H122.63C121.091 184.098 119.842 182.848 119.842 181.31C119.842 180.799 119.977 180.325 120.217 179.915C120.695 180.75 121.598 181.31 122.63 181.31H200.436C201.207 181.31 201.903 181 202.406 180.493C202.578 180.321 202.727 180.129 202.849 179.915C203.089 180.325 203.224 180.799 203.224 181.31Z" fill="#000072"/>
</g>
<path d="M200.436 185.528H122.63C120.304 185.528 118.413 183.635 118.413 181.309C118.413 178.984 120.305 177.092 122.63 177.092H200.436C202.761 177.092 204.653 178.984 204.653 181.309C204.653 183.635 202.762 185.528 200.436 185.528ZM122.63 179.948C121.88 179.948 121.269 180.559 121.269 181.309C121.269 182.061 121.88 182.671 122.63 182.671H200.436C201.186 182.671 201.797 182.06 201.797 181.309C201.797 180.559 201.186 179.948 200.436 179.948H122.63Z" fill="#2C2C31"/>
<path d="M201.501 178.521H121.566C120.584 178.521 119.757 177.784 119.644 176.806L114.667 133.394C114.479 131.754 115.761 130.316 117.412 130.316H205.654C207.304 130.316 208.587 131.754 208.399 133.394L203.421 176.806C203.31 177.783 202.484 178.521 201.501 178.521Z" fill="#ADB9C4"/>
<g opacity="0.5">
<path opacity="0.5" d="M166.609 159.849C168.812 157.646 168.812 154.074 166.609 151.871C164.406 149.668 160.834 149.668 158.631 151.871C156.428 154.074 156.428 157.646 158.631 159.849C160.834 162.052 164.406 162.052 166.609 159.849Z" fill="white"/>
</g>
<g opacity="0.3">
<path opacity="0.3" d="M208.399 133.392L203.422 176.806C203.309 177.782 202.483 178.52 201.502 178.52H121.566C120.585 178.52 119.756 177.782 119.645 176.806L119.143 172.421H198.612C199.596 172.421 200.422 171.684 200.533 170.708L205.166 130.317H205.655C207.305 130.317 208.587 131.754 208.399 133.392Z" fill="#000072"/>
</g>
<g opacity="0.5">
<path opacity="0.5" d="M208.078 133.392L207.791 135.888C207.338 135.004 206.415 134.388 205.334 134.388H117.091C116.01 134.388 115.087 135.004 114.634 135.888L114.346 133.392C114.159 131.753 115.441 130.317 117.091 130.317H205.334C206.984 130.317 208.266 131.754 208.078 133.392Z" fill="white"/>
</g>
<path d="M201.501 179.948H121.566C119.856 179.948 118.421 178.667 118.226 176.969L113.248 133.557C113.112 132.372 113.489 131.18 114.283 130.29C115.078 129.4 116.218 128.889 117.412 128.889H205.653C206.847 128.889 207.987 129.4 208.781 130.29C209.575 131.18 209.953 132.372 209.817 133.557L204.839 176.969C204.646 178.668 203.21 179.948 201.501 179.948ZM117.413 131.745C117.027 131.745 116.673 131.902 116.416 132.191C116.159 132.48 116.042 132.849 116.086 133.232L121.063 176.644C121.092 176.9 121.308 177.092 121.566 177.092H201.501C201.758 177.092 201.974 176.9 202.003 176.644L206.981 133.232C207.024 132.849 206.907 132.479 206.651 132.191C206.394 131.903 206.04 131.745 205.654 131.745H117.413Z" fill="#2C2C31"/>
<path d="M107.304 182.018C109.847 182.018 111.909 179.599 111.909 176.616C111.909 173.632 109.847 171.213 107.304 171.213C104.761 171.213 102.699 173.632 102.699 176.616C102.699 179.599 104.761 182.018 107.304 182.018Z" fill="#FFCFAE"/>
<path d="M107.304 183.447C103.978 183.447 101.271 180.383 101.271 176.616C101.271 172.849 103.978 169.785 107.304 169.785C110.631 169.785 113.336 172.85 113.336 176.616C113.336 180.382 110.63 183.447 107.304 183.447ZM107.304 172.641C105.552 172.641 104.127 174.424 104.127 176.616C104.127 178.808 105.552 180.59 107.304 180.59C109.055 180.59 110.48 178.808 110.48 176.616C110.48 174.424 109.055 172.641 107.304 172.641Z" fill="#2C2C31"/>
<path d="M103.418 184.065H83.8145C82.7164 184.065 81.8262 183.174 81.8262 182.075C81.8262 175.564 87.1051 170.285 93.6164 170.285C100.129 170.285 105.407 175.564 105.407 182.075C105.407 183.174 104.516 184.065 103.418 184.065Z" fill="#ADB9C4"/>
<path d="M103.418 185.493H83.8142C81.9302 185.493 80.3975 183.96 80.3975 182.076C80.3975 174.787 86.3271 168.857 93.6161 168.857C100.905 168.857 106.835 174.787 106.835 182.076C106.835 183.96 105.302 185.493 103.418 185.493ZM93.6161 171.713C87.9025 171.713 83.2534 176.362 83.2534 182.075C83.2534 182.385 83.5047 182.636 83.8142 182.636H103.418C103.727 182.636 103.979 182.385 103.979 182.075C103.979 176.362 99.3297 171.713 93.6161 171.713Z" fill="#2C2C31"/>
<path d="M76.3393 178.502C77.3103 179.548 80.158 181.79 86.1276 178.672C92.0971 175.555 99.1865 174.849 101.491 174.675C105.14 174.399 108.038 172.659 107.107 168.369C106.183 164.112 100.599 160.151 92.6661 160.312C76.5816 160.637 72.7429 174.626 76.3393 178.502Z" fill="#FFCFAE"/>
<g opacity="0.2">
<path opacity="0.2" d="M107.107 168.367C106.862 167.237 106.284 166.129 105.425 165.111C105.084 167.824 102.626 169.005 99.675 169.229C97.3709 169.403 90.2806 170.109 84.312 173.226C79.3107 175.838 76.502 174.688 75.1507 173.632C74.9466 175.678 75.3704 177.458 76.3387 178.501C77.3097 179.548 80.1574 181.789 86.127 178.672C92.0965 175.555 99.1859 174.849 101.49 174.675C105.139 174.398 108.038 172.658 107.107 168.367Z" fill="#000072"/>
</g>
<g opacity="0.5">
<path opacity="0.5" d="M94.0283 163.487C100.189 163.363 104.933 165.724 107.177 168.78C107.154 168.643 107.139 168.511 107.108 168.368C106.184 164.111 100.6 160.15 92.667 160.311C76.5816 160.636 72.7429 174.625 76.3393 178.501C76.3892 178.554 76.4445 178.612 76.5044 178.671C75.9255 173.13 80.8913 163.753 94.0283 163.487Z" fill="white"/>
</g>
<path d="M80.6398 181.68C77.7748 181.68 76.0633 180.303 75.2919 179.473C73.3408 177.371 73.1302 173.366 74.7674 169.507C77.5171 163.026 84.1972 159.055 92.6369 158.884C101.701 158.702 107.482 163.364 108.502 168.066C108.961 170.183 108.666 171.964 107.624 173.361C106.445 174.942 104.36 175.89 101.598 176.098C98.9758 176.297 92.2839 177.068 86.7872 179.938C84.3288 181.222 82.2923 181.68 80.6398 181.68ZM77.3855 177.53C79.0371 179.309 81.9067 179.266 85.4668 177.405C91.2185 174.401 97.9077 173.512 101.383 173.25C103.271 173.106 104.674 172.539 105.336 171.653C105.862 170.947 105.989 169.944 105.712 168.671C104.959 165.198 100.145 161.589 92.6959 161.739C81.9057 161.957 78.2585 168.593 77.3973 170.623C76.0742 173.74 76.39 176.457 77.3855 177.53Z" fill="#2C2C31"/>
<path d="M94.8608 158.944C96.6939 158.824 98.5216 158.851 100.354 158.912C102.373 158.999 104.371 159.502 106.157 160.387C107.066 160.797 107.89 161.366 108.687 161.938C109.066 162.255 109.463 162.542 109.805 162.896L110.331 163.406L110.82 163.948C111.453 164.683 112.021 165.469 112.475 166.311L112.813 166.94L113.101 167.592C113.2 167.806 113.286 168.026 113.357 168.252L113.469 168.586L113.525 168.752L113.553 168.835L113.567 168.877L113.574 168.898L113.578 168.908L113.58 168.913C113.498 168.953 113.766 168.831 113.396 169.003C113.025 169.172 113.292 169.047 113.208 169.084L113.205 169.079L113.199 169.07L113.186 169.052L113.161 169.017L113.112 168.947L113.014 168.807L112.818 168.528C112.69 168.342 112.563 168.158 112.417 167.985L112.003 167.458L111.56 166.959C111.276 166.622 110.939 166.329 110.639 166.015C110.305 165.731 109.991 165.43 109.641 165.172C108.976 164.618 108.226 164.187 107.497 163.759C106.738 163.373 105.973 163.019 105.174 162.766C103.591 162.217 101.93 162.033 100.299 162.008C98.4744 162.008 96.644 161.979 94.8199 161.799H94.8163C94.0286 161.722 93.4532 161.021 93.5304 160.233C93.5993 159.526 94.1729 158.989 94.8608 158.944Z" fill="#2C2C31"/>
<path d="M97.173 164.954C97.88 165.567 98.4644 166.273 99.0071 167.025C99.537 167.783 100.006 168.595 100.391 169.466C100.764 170.34 101.073 171.272 101.201 172.263C101.311 173.256 101.257 174.313 100.909 175.307C100.657 176.029 99.8683 176.41 99.1459 176.158C98.5787 175.961 98.2221 175.431 98.2175 174.862L98.2166 174.708C98.2121 173.982 98.2393 173.279 98.2148 172.525C98.1658 171.772 98.1232 170.985 98.007 170.176C97.7593 168.562 97.33 166.893 96.8445 165.172L96.8418 165.163C96.8109 165.054 96.8744 164.942 96.9824 164.911C97.0514 164.892 97.1222 164.91 97.173 164.954Z" fill="#2C2C31"/>
<path d="M89.9399 166.454C90.5243 167.137 91.0298 167.856 91.5181 168.587C91.9963 169.321 92.4491 170.071 92.8675 170.837C93.2831 171.604 93.6906 172.38 94.0091 173.195C94.3258 174.01 94.5945 174.851 94.7124 175.743C94.8132 176.507 94.2759 177.208 93.5118 177.309C92.9047 177.389 92.3375 177.067 92.0798 176.548L92.0671 176.521C91.6959 175.773 91.4273 174.988 91.1814 174.187C90.93 173.388 90.744 172.56 90.547 171.73C90.1595 170.066 89.7938 168.38 89.5796 166.614C89.566 166.502 89.6459 166.398 89.7593 166.384C89.8283 166.375 89.8964 166.404 89.9399 166.454Z" fill="#2C2C31"/>
<path d="M82.8832 170.598C83.4903 171.098 84.0231 171.644 84.5412 172.205C85.0494 172.771 85.534 173.355 85.986 173.963C86.4352 174.573 86.879 175.193 87.2356 175.865C87.5914 176.537 87.9017 177.244 88.0623 178.022C88.2184 178.779 87.7311 179.519 86.9743 179.676C86.3989 179.795 85.8335 179.542 85.5268 179.082L85.5005 179.042C85.1102 178.454 84.8135 177.819 84.5349 177.164C84.2527 176.511 84.0258 175.82 83.7889 175.127C83.3206 173.737 82.8642 172.321 82.5475 170.804C82.5239 170.691 82.5956 170.58 82.7081 170.556C82.7716 170.542 82.836 170.56 82.8832 170.598Z" fill="#2C2C31"/>
<path d="M167.773 76.6557C167.183 76.6557 166.703 76.1766 166.703 75.5858C166.703 75.3961 166.655 75.1475 166.279 74.9079C165.919 74.6792 165.392 74.5485 164.83 74.5485C164.106 74.5485 162.957 74.8298 162.957 75.5858C162.957 76.1766 162.478 76.6557 161.887 76.6557C161.297 76.6557 160.817 76.1766 160.817 75.5858C160.817 73.7445 162.505 72.4077 164.83 72.4077C167.155 72.4077 168.843 73.7445 168.843 75.5858C168.843 76.1766 168.364 76.6557 167.773 76.6557Z" fill="#2C2C31"/>
<path d="M149.506 89.0375C142.088 89.0375 136.054 83.0026 136.054 75.5847C136.054 68.1668 142.089 62.1328 149.506 62.1328C156.923 62.1328 162.957 68.1668 162.957 75.5847C162.957 83.0026 156.923 89.0375 149.506 89.0375ZM149.506 64.2736C143.268 64.2736 138.194 69.3484 138.194 75.5856C138.194 81.8238 143.268 86.8976 149.506 86.8976C155.743 86.8976 160.818 81.8229 160.818 75.5856C160.818 69.3484 155.743 64.2736 149.506 64.2736Z" fill="#2C2C31"/>
<path d="M179.818 88.6129C172.634 88.6129 166.791 82.7686 166.791 75.5858C166.791 68.402 172.635 62.5586 179.818 62.5586C187.001 62.5586 192.845 68.402 192.845 75.5858C192.845 82.7686 187.001 88.6129 179.818 88.6129ZM179.818 64.6313C173.778 64.6313 168.864 69.5454 168.864 75.5858C168.864 81.6261 173.778 86.5402 179.818 86.5402C185.859 86.5402 190.773 81.6261 190.773 75.5858C190.773 69.5454 185.859 64.6313 179.818 64.6313Z" fill="#2C2C31"/>
<path d="M137.362 74.7852H130.402C129.86 74.7852 129.421 74.346 129.421 73.8043C129.421 73.2625 129.86 72.8232 130.402 72.8232H137.362C137.903 72.8232 138.343 73.2625 138.343 73.8043C138.343 74.346 137.903 74.7852 137.362 74.7852Z" fill="#2C2C31"/>
<path d="M198.334 74.7852H191.808C191.266 74.7852 190.827 74.346 190.827 73.8043C190.827 73.2625 191.266 72.8232 191.808 72.8232H198.334C198.876 72.8232 199.315 73.2625 199.315 73.8043C199.315 74.346 198.876 74.7852 198.334 74.7852Z" fill="#2C2C31"/>
<path d="M93.2009 185.493C92.4123 185.493 91.7734 184.853 91.7734 184.065V176.616C91.7734 175.827 92.4123 175.188 93.2009 175.188C93.9895 175.188 94.6284 175.827 94.6284 176.616V184.065C94.6293 184.853 93.9895 185.493 93.2009 185.493Z" fill="#2C2C31"/>
<path d="M150.792 84.3211C154.407 83.9816 156.981 79.9071 156.541 75.2206C156.101 70.5341 152.813 67.0101 149.198 67.3496C145.583 67.6891 143.009 71.7636 143.449 76.4501C143.889 81.1366 147.177 84.6606 150.792 84.3211Z" fill="#2C2C31"/>
<path d="M152.457 76.8188C153.424 76.7068 154.056 75.3086 153.869 73.6959C153.682 72.0833 152.747 70.8668 151.78 70.9788C150.813 71.0908 150.181 72.489 150.368 74.1016C150.554 75.7143 151.49 76.9308 152.457 76.8188Z" fill="white"/>
<path d="M147.981 78.4346C148.005 79.2459 147.629 79.8984 147.142 79.8912C146.654 79.8839 146.24 79.2205 146.217 78.4092C146.193 77.5979 146.569 76.9454 147.056 76.9527C147.544 76.96 147.957 77.6233 147.981 78.4346Z" fill="white"/>
<path d="M186.461 76.4415C186.901 71.755 184.327 67.6805 180.712 67.341C177.097 67.0015 173.809 70.5255 173.369 75.212C172.929 79.8986 175.503 83.973 179.118 84.3125C182.733 84.652 186.021 81.1281 186.461 76.4415Z" fill="#2C2C31"/>
<path d="M179.582 74.0858C179.769 72.4732 179.136 71.075 178.17 70.963C177.203 70.851 176.267 72.0675 176.081 73.6801C175.894 75.2928 176.526 76.6909 177.493 76.8029C178.46 76.915 179.395 75.6985 179.582 74.0858Z" fill="white"/>
<path d="M181.949 78.4341C181.926 79.2455 182.301 79.8979 182.789 79.8907C183.276 79.8834 183.69 79.2201 183.713 78.4087C183.737 77.5974 183.361 76.9449 182.874 76.9522C182.387 76.9595 181.973 77.6228 181.949 78.4341Z" fill="white"/>
<path d="M156.253 89.797C156.253 91.5893 156.817 93.4968 157.957 95.0323C159.277 96.8283 161.365 98.1124 164.221 98.1124C166.585 98.1124 168.748 96.8365 170.225 95.0124C171.444 93.5123 172.189 91.6365 172.189 89.797C172.189 87.8014 171.328 87.7732 169.933 88.2651C169.416 88.4412 168.825 88.6971 168.177 88.9448C167.012 89.3931 165.665 89.8323 164.221 89.8323C162.705 89.8323 161.289 89.3605 160.085 88.9004C159.417 88.6444 158.809 88.3967 158.293 88.2324C157.022 87.8377 156.253 87.9575 156.253 89.797Z" fill="#2C2C31"/>
<path d="M158.078 89.0014C158.078 90.5278 159.489 92.0388 161.538 92.2321C163.588 92.4254 164.623 92.4254 166.672 92.2321C168.994 92.0125 170.499 90.1049 170.06 88.3952C170.028 88.2699 169.986 88.1438 169.935 88.024C169.417 88.2019 168.827 88.4578 168.179 88.7037C167.013 89.153 165.664 89.5922 164.222 89.5922C162.706 89.5922 161.29 89.1221 160.087 88.662C159.419 88.4061 158.812 88.1547 158.294 87.9932C158.237 88.1238 158.195 88.2545 158.158 88.3961C158.104 88.5939 158.078 88.7972 158.078 89.0014Z" fill="white"/>
<path d="M157.957 94.7924C159.277 96.5884 161.365 97.8725 164.221 97.8725C166.585 97.8725 168.748 96.5965 170.225 94.7725C169.185 94.1082 166.069 93.2288 164.657 94.4122C164.217 94.7843 164.109 95.4921 164.109 95.4921C164.109 95.4921 164.001 94.7843 163.557 94.4122C162.129 93.2161 158.965 94.1245 157.957 94.7924Z" fill="#FF4AA1"/>
<path d="M164.221 98.0322C160.847 98.0322 158.882 96.3225 157.827 94.8877C157.801 94.8523 157.791 94.8078 157.798 94.7643C157.806 94.7207 157.831 94.6826 157.868 94.6581C158.877 93.9883 162.158 93.0309 163.66 94.2887C163.873 94.4675 164.015 94.7116 164.108 94.9313C164.201 94.7116 164.341 94.4684 164.553 94.2896C166.041 93.0427 169.263 93.9684 170.311 94.6372C170.349 94.6617 170.375 94.7017 170.383 94.747C170.39 94.7924 170.378 94.8387 170.349 94.8741C168.725 96.8815 166.491 98.0322 164.221 98.0322ZM158.191 94.8369C159.226 96.1809 161.091 97.7119 164.221 97.7119C166.339 97.7119 168.429 96.6582 169.981 94.816C168.879 94.2125 166.039 93.4611 164.76 94.5356C164.372 94.8623 164.268 95.5102 164.267 95.5166C164.242 95.6736 163.974 95.6736 163.949 95.5166C163.948 95.5102 163.844 94.8632 163.453 94.5356C162.188 93.4747 159.318 94.1916 158.191 94.8369Z" fill="#390075"/>
<path d="M164.221 98.7444C158.479 98.7444 155.382 94.0099 155.382 89.555C155.382 88.839 155.469 87.8235 156.22 87.2717C156.933 86.7472 157.841 86.9359 158.554 87.1592C158.966 87.2881 159.415 87.4632 159.891 87.6501L160.398 87.8462C161.584 88.2999 162.867 88.7192 164.221 88.7192C165.535 88.7192 166.8 88.2999 167.864 87.8888C168.127 87.789 168.375 87.6901 168.614 87.5939C168.984 87.4459 169.331 87.308 169.65 87.1982C170.483 86.9051 171.441 86.6746 172.19 87.2046C172.97 87.7563 173.06 88.8108 173.06 89.555C173.06 93.8928 169.28 98.7444 164.221 98.7444ZM157.239 88.6874C157.246 88.6938 157.127 88.8825 157.127 89.5559C157.127 93.1641 159.613 96.9992 164.221 96.9992C168.216 96.9992 171.315 92.9981 171.315 89.5559C171.315 88.7954 171.171 88.6221 171.171 88.6203C171.167 88.6284 170.967 88.5858 170.225 88.8471C169.924 88.9506 169.604 89.0786 169.263 89.2156C169.015 89.3145 168.756 89.418 168.488 89.5196C167.279 89.9861 165.822 90.4652 164.222 90.4652C162.579 90.4652 161.053 89.9661 159.775 89.4769L159.257 89.2764C158.809 89.1012 158.387 88.9361 158.033 88.8254C157.446 88.642 157.269 88.6783 157.239 88.6874Z" fill="#2C2C31"/>
<path d="M161.642 160.52C164.757 160.52 167.283 157.995 167.283 154.879C167.283 151.764 164.757 149.238 161.642 149.238C158.527 149.238 156.001 151.764 156.001 154.879C156.001 157.995 158.527 160.52 161.642 160.52Z" fill="#2C2C31"/>
<g opacity="0.2">
<path opacity="0.2" d="M109.52 172.688C109.52 172.688 110.289 179.49 104.67 176.616L105.407 179.35L106.419 182.019L109.013 181.311L111.114 179.652L111.833 175.634L111.372 174.086L109.52 172.688Z" fill="#2C2C31"/>
</g>
<path d="M20.0975 184.417C25.6559 183.595 31.2144 183.398 36.7728 183.297C42.3312 183.183 47.8897 183.243 53.4481 183.305L61.7862 183.355L70.1243 183.358H86.7987H153.5H220.201H253.552L261.89 183.355L266.059 183.317L270.228 183.251C273.007 183.216 275.787 183.27 278.566 183.402C281.345 183.575 284.125 183.816 286.904 184.416C287.197 184.479 287.383 184.767 287.319 185.059C287.273 185.273 287.105 185.43 286.904 185.474C284.126 186.074 281.346 186.315 278.566 186.488C275.787 186.621 273.008 186.674 270.228 186.639L266.059 186.573L261.89 186.535L253.552 186.532H220.201H153.5H86.7987H70.1234L61.7853 186.535L53.4472 186.585C47.8888 186.646 42.3303 186.707 36.7719 186.593C31.2134 186.492 25.655 186.295 20.0966 185.473C19.8044 185.429 19.602 185.158 19.6455 184.865C19.6818 184.629 19.8706 184.45 20.0975 184.417Z" fill="#2C2C31"/>
<path d="M263.755 160.859C263.24 160.859 262.743 160.586 262.479 160.103L255.245 146.849C254.861 146.145 255.12 145.263 255.824 144.879C256.528 144.495 257.41 144.754 257.794 145.458L265.028 158.712C265.412 159.416 265.153 160.298 264.449 160.682C264.228 160.802 263.99 160.859 263.755 160.859Z" fill="#000072"/>
<path d="M271.835 147.496L271.573 150.895L268.967 184.632H247.929L245.323 150.895L245.062 147.496H271.835Z" fill="white"/>
<path d="M269.177 184.859H247.72L244.817 147.269H272.08L269.177 184.859ZM248.139 184.405H268.756L271.589 147.723H245.307L248.139 184.405Z" fill="#000072"/>
<g opacity="0.3">
<path opacity="0.3" d="M271.835 147.496L268.967 184.632H247.929L245.062 147.496H245.273L247.678 178.631H259.265C263.563 178.631 267.137 175.322 267.468 171.037L269.285 147.495H271.835V147.496Z" fill="#000072"/>
</g>
<g opacity="0.3">
<path opacity="0.3" d="M271.835 147.496L271.573 150.895H245.323L245.062 147.496H271.835Z" fill="#000072"/>
</g>
<path d="M273.6 147.496H243.296C242.143 147.496 241.208 146.562 241.208 145.408V142.895C241.208 141.742 242.143 140.807 243.296 140.807H273.6C274.754 140.807 275.688 141.742 275.688 142.895V145.408C275.688 146.562 274.753 147.496 273.6 147.496Z" fill="#26BA02"/>
<path d="M273.601 147.723H243.296C242.021 147.723 240.981 146.685 240.981 145.408V142.895C240.981 141.618 242.02 140.58 243.296 140.58H273.601C274.877 140.58 275.916 141.618 275.916 142.895V145.408C275.915 146.685 274.877 147.723 273.601 147.723ZM243.296 141.035C242.27 141.035 241.435 141.87 241.435 142.896V145.409C241.435 146.435 242.27 147.27 243.296 147.27H273.601C274.627 147.27 275.462 146.435 275.462 145.409V142.896C275.462 141.87 274.627 141.035 273.601 141.035H243.296Z" fill="#000072"/>
<g opacity="0.5">
<path opacity="0.5" d="M275.687 142.681V144.531C275.687 143.747 275.051 143.112 274.27 143.112H242.626C241.844 143.112 241.209 143.747 241.209 144.531V142.681C241.209 141.896 241.844 141.261 242.626 141.261H274.27C275.051 141.261 275.687 141.896 275.687 142.681Z" fill="white"/>
</g>
<g opacity="0.3">
<path opacity="0.3" d="M275.687 143.458V146.077C275.687 146.861 275.051 147.496 274.27 147.496H242.626C241.844 147.496 241.209 146.861 241.209 146.077V143.458C241.209 144.242 241.844 144.877 242.626 144.877H274.27C275.051 144.877 275.687 144.243 275.687 143.458Z" fill="#000072"/>
</g>
<path d="M271.953 140.808H244.942V140.133C244.942 137.612 246.986 135.569 249.506 135.569H267.388C269.909 135.569 271.952 137.613 271.952 140.133V140.808H271.953Z" fill="#26BA02"/>
<path d="M272.18 141.035H244.716V140.132C244.716 137.491 246.865 135.342 249.507 135.342H267.39C270.031 135.342 272.18 137.491 272.18 140.132V141.035ZM245.17 140.581H271.727V140.132C271.727 137.741 269.781 135.796 267.39 135.796H249.507C247.115 135.796 245.17 137.741 245.17 140.132V140.581Z" fill="#000072"/>
<g opacity="0.5">
<path opacity="0.5" d="M271.954 138.858V140.808H271.941C271.805 139.115 270.389 137.787 268.663 137.787H248.232C246.507 137.787 245.09 139.115 244.954 140.808H244.941V138.858C244.941 137.041 246.415 135.57 248.232 135.57H268.663C270.48 135.57 271.954 137.042 271.954 138.858Z" fill="white"/>
</g>
<path d="M273.6 148.857H243.296C241.394 148.857 239.847 147.31 239.847 145.408V142.895C239.847 140.993 241.394 139.446 243.296 139.446H273.6C275.502 139.446 277.05 140.993 277.05 142.895V145.408C277.049 147.31 275.501 148.857 273.6 148.857ZM243.296 142.169C242.896 142.169 242.569 142.495 242.569 142.896V145.409C242.569 145.809 242.895 146.136 243.296 146.136H273.6C274.001 146.136 274.327 145.81 274.327 145.409V142.896C274.327 142.496 274.001 142.169 273.6 142.169H243.296Z" fill="#2C2C31"/>
<path d="M273.314 142.169H243.581V140.133C243.581 136.866 246.239 134.208 249.506 134.208H267.389C270.656 134.208 273.314 136.866 273.314 140.133V142.169ZM246.378 139.447H270.518C270.204 138.009 268.92 136.93 267.389 136.93H249.506C247.976 136.93 246.693 138.009 246.378 139.447Z" fill="#2C2C31"/>
<path d="M271.24 155.196L269.881 172.778H247.014L245.656 155.196H271.24Z" fill="#26BA02"/>
<path d="M255.814 166.552C255.941 166.667 256.08 166.762 256.234 166.837C257.559 167.48 259.441 166.334 260.435 164.281C261.176 162.754 261.22 161.152 260.65 160.168C260.163 160.332 258.919 160.899 258.784 162.474C258.698 163.494 258.438 166.542 255.814 166.552Z" fill="white"/>
<path d="M255.239 165.669C255.339 165.542 255.499 165.464 255.674 165.475C256.548 165.515 257.475 165.188 257.715 162.387C257.852 160.764 258.873 159.825 259.771 159.369C258.451 158.799 256.618 159.939 255.64 161.957C254.991 163.293 254.876 164.682 255.239 165.669Z" fill="white"/>
<g opacity="0.3">
<path opacity="0.3" d="M271.24 155.196L269.882 172.778H247.015L246.776 169.689H258.984C263.143 169.689 266.603 166.487 266.923 162.34L267.475 155.197H271.24V155.196Z" fill="#000072"/>
</g>
<path d="M270.932 173.912H245.964L244.431 154.061H272.465L270.932 173.912ZM248.064 171.643H268.832L270.014 156.33H246.882L248.064 171.643Z" fill="#000072"/>
<path d="M270.311 186.083H246.586L243.491 146.046H273.405L270.311 186.083ZM249.274 183.179H267.622L270.267 148.95H246.628L249.274 183.179Z" fill="#000072"/>
<g opacity="0.4">
<g opacity="0.4">
<path opacity="0.4" d="M255.153 123.937L255.108 122.35C255.098 121.777 255.211 121.195 255.449 120.663C255.919 119.6 256.867 118.743 258.008 118.411C258.573 118.229 259.2 118.227 259.699 118.219L261.282 118.184L264.449 118.123L270.784 118.037L272.367 118.015C272.859 118.01 273.262 117.944 273.681 117.785C274.497 117.475 275.179 116.834 275.538 116.049C275.902 115.271 275.955 114.346 275.673 113.537C275.398 112.727 274.79 112.036 274.029 111.656C273.65 111.465 273.234 111.349 272.811 111.315L272.485 111.302L272.09 111.305L271.297 111.31L268.13 111.319L255.461 111.326L242.791 111.283L241.999 111.279L241.603 111.276L241.401 111.274L241.158 111.261C240.514 111.221 239.874 111.03 239.319 110.698C238.197 110.052 237.415 108.863 237.273 107.577C237.111 106.3 237.604 104.965 238.529 104.089C238.991 103.651 239.553 103.319 240.16 103.128C240.756 102.923 241.462 102.935 241.94 102.947L254.609 103.098C258.833 103.179 263.056 103.234 267.279 103.347C267.434 103.352 267.556 103.481 267.551 103.635C267.548 103.785 267.426 103.903 267.279 103.908C263.056 104.022 258.833 104.076 254.609 104.158L241.94 104.308C241.367 104.31 240.997 104.314 240.587 104.457C240.19 104.593 239.826 104.821 239.529 105.115C238.936 105.708 238.64 106.57 238.763 107.393C238.867 108.211 239.372 108.964 240.091 109.365C240.445 109.573 240.847 109.685 241.256 109.706L241.409 109.713H241.603L241.999 109.711L242.791 109.706L255.461 109.663L268.13 109.671L271.297 109.679L272.09 109.684L272.485 109.687L272.951 109.711C273.579 109.77 274.197 109.952 274.755 110.244C275.875 110.825 276.748 111.85 277.137 113.047C277.53 114.24 277.442 115.577 276.883 116.697C276.33 117.818 275.333 118.698 274.162 119.106C273.59 119.316 272.931 119.392 272.367 119.378L270.784 119.356L264.449 119.27L261.282 119.209L259.699 119.174C259.144 119.159 258.701 119.141 258.248 119.263C257.343 119.481 256.546 120.13 256.124 120.98C255.911 121.403 255.783 121.873 255.763 122.356L255.714 123.936C255.709 124.091 255.58 124.212 255.425 124.208C255.276 124.205 255.158 124.084 255.153 123.937Z" fill="#000072"/>
</g>
<g opacity="0.4">
<path opacity="0.4" d="M272.73 103.405C273.119 103.197 273.506 103.101 273.894 103.031C274.283 102.967 274.67 102.948 275.059 102.961C275.447 102.972 275.835 103.004 276.223 103.073C276.611 103.148 276.999 103.234 277.387 103.405C277.511 103.459 277.567 103.603 277.513 103.728C277.487 103.786 277.441 103.829 277.387 103.853C276.999 104.023 276.611 104.111 276.223 104.184C275.835 104.253 275.447 104.286 275.059 104.297C274.67 104.308 274.283 104.29 273.894 104.227C273.506 104.157 273.119 104.06 272.73 103.852C272.607 103.786 272.559 103.631 272.626 103.508C272.65 103.463 272.687 103.428 272.73 103.405Z" fill="#000072"/>
</g>
<g opacity="0.4">
<path opacity="0.4" d="M265.311 96.3195C266.845 96.0582 268.38 95.9411 269.914 95.8522C271.449 95.7823 272.984 95.7442 274.518 95.7687C275.286 95.775 276.053 95.7814 276.82 95.8113C277.588 95.8295 278.355 95.8631 279.123 95.9075C280.657 95.9946 282.192 96.1072 283.727 96.3186C283.882 96.3404 283.99 96.4829 283.968 96.638C283.95 96.766 283.849 96.8631 283.727 96.8794C282.192 97.0909 280.657 97.2043 279.123 97.2914C278.355 97.335 277.588 97.3686 276.82 97.3867C276.054 97.4167 275.286 97.423 274.518 97.4303C272.984 97.4548 271.449 97.4167 269.914 97.3468C268.38 97.2579 266.845 97.1408 265.311 96.8794C265.155 96.8531 265.052 96.7061 265.078 96.5518C265.098 96.4293 265.194 96.3395 265.311 96.3195Z" fill="#000072"/>
</g>
</g>
<g opacity="0.4">
<g opacity="0.4">
<g opacity="0.4">
<g opacity="0.4">
<path opacity="0.4" d="M235.658 1.25464C232.963 1.25464 230.771 -0.937881 230.771 -3.63316V-7.70693C230.771 -10.4022 232.963 -12.5947 235.658 -12.5947H251.324C254.019 -12.5947 256.211 -10.4022 256.211 -7.70693V-3.63316C256.211 -0.937881 254.019 1.25464 251.324 1.25464H235.658Z" fill="#FF6F48"/>
</g>
<g opacity="0.4">
<g opacity="0.4">
<path opacity="0.4" d="M251.323 -11.2959C253.305 -11.2959 254.912 -9.68876 254.912 -7.70678V-3.63301C254.912 -1.65103 253.304 -0.0447515 251.323 -0.0447515H235.658C233.676 -0.0447515 232.07 -1.65103 232.07 -3.63301V-7.70678C232.07 -9.68876 233.677 -11.2959 235.658 -11.2959H251.323V-11.2959ZM251.323 -13.895H235.658C232.246 -13.895 229.471 -11.119 229.471 -7.70769V-3.63392C229.471 -0.221719 232.246 2.55342 235.658 2.55342H251.323C254.735 2.55342 257.511 -0.221719 257.511 -3.63392V-7.70769C257.511 -11.119 254.735 -13.895 251.323 -13.895Z" fill="#000072"/>
</g>
</g>
</g>
</g>
</g>
<g opacity="0.4">
<g opacity="0.4">
<g opacity="0.4">
<g opacity="0.4">
<g opacity="0.4">
<path opacity="0.4" d="M43.3978 22.4108C40.6335 22.4108 38.3848 20.162 38.3848 17.3977V13.1815C38.3848 10.4172 40.6335 8.16846 43.3978 8.16846H59.6094C62.3736 8.16846 64.6224 10.4172 64.6224 13.1815V17.3977C64.6224 20.162 62.3736 22.4108 59.6094 22.4108H43.3978Z" fill="#FF6F48"/>
</g>
<g opacity="0.4">
<path opacity="0.4" d="M59.6082 9.46871C61.6591 9.46871 63.3217 11.1313 63.3217 13.1822V17.3975C63.3217 19.4485 61.6591 21.111 59.6082 21.111H43.3975C41.3466 21.111 39.684 19.4485 39.684 17.3975V13.1822C39.684 11.1313 41.3466 9.46871 43.3975 9.46871H59.6082ZM59.6082 6.86963H43.3975C39.9173 6.86963 37.085 9.70103 37.085 13.1822V17.3975C37.085 20.8778 39.9164 23.7101 43.3975 23.7101H59.6091C63.0894 23.7101 65.9217 20.8787 65.9217 17.3975V13.1822C65.9208 9.70103 63.0894 6.86963 59.6082 6.86963Z" fill="#000072"/>
</g>
</g>
</g>
<g opacity="0.5">
<path opacity="0.5" d="M41.9877 18.934V14.7186C41.9877 12.6677 43.6503 11.0052 45.7012 11.0052H61.9128C62.1724 11.0052 62.4255 11.0324 62.6697 11.0832C61.9999 10.1085 60.8792 9.46875 59.6078 9.46875H43.3971C41.3461 9.46875 39.6836 11.1313 39.6836 13.1822V17.3976C39.6836 19.189 40.9523 20.6836 42.6402 21.0339C42.2291 20.4359 41.9877 19.7135 41.9877 18.934Z" fill="white"/>
</g>
<g opacity="0.3">
<path opacity="0.3" d="M59.608 9.46875H56.1504C58.2013 9.46875 59.8639 11.1313 59.8639 13.1822V17.3976C59.8639 19.4485 58.2013 21.1111 56.1504 21.1111H59.608C61.6589 21.1111 63.3215 19.4485 63.3215 17.3976V13.1822C63.3224 11.1313 61.6589 9.46875 59.608 9.46875Z" fill="#000072"/>
</g>
<g opacity="0.4">
<g opacity="0.4">
<path opacity="0.4" d="M56.3578 36.7507C53.5935 36.7507 51.3447 34.5019 51.3447 31.7377V27.5223C51.3447 24.7581 53.5935 22.5093 56.3578 22.5093H72.5693C75.3336 22.5093 77.5824 24.7581 77.5824 27.5223V31.7377C77.5824 34.5019 75.3336 36.7507 72.5693 36.7507H56.3578Z" fill="#FF6F48"/>
</g>
<g opacity="0.4">
<g opacity="0.4">
<path opacity="0.4" d="M72.5682 23.8081C74.6191 23.8081 76.2816 25.4707 76.2816 27.5216V31.737C76.2816 33.7879 74.6191 35.4505 72.5682 35.4505H56.3575C54.3065 35.4505 52.644 33.7879 52.644 31.737V27.5216C52.644 25.4707 54.3065 23.8081 56.3575 23.8081H72.5682ZM72.5682 21.21H56.3575C52.8772 21.21 50.0449 24.0414 50.0449 27.5225V31.7379C50.0449 35.2181 52.8763 38.0504 56.3575 38.0504H72.5691C76.0493 38.0504 78.8816 35.219 78.8816 31.7379V27.5225C78.8807 24.0414 76.0493 21.21 72.5682 21.21Z" fill="#000072"/>
</g>
</g>
</g>
<g opacity="0.5">
<path opacity="0.5" d="M54.9496 32.8904V28.6751C54.9496 26.6241 56.6121 24.9616 58.6631 24.9616H74.8746C75.0099 24.9616 75.1433 24.9698 75.2749 24.9843C74.597 24.2628 73.6377 23.8091 72.5696 23.8091H56.358C54.3071 23.8091 52.6445 25.4716 52.6445 27.5226V31.7379C52.6445 33.6536 54.0956 35.23 55.9578 35.4296C55.3344 34.7644 54.9496 33.8733 54.9496 32.8904Z" fill="white"/>
</g>
<g opacity="0.3">
<path opacity="0.3" d="M72.5679 23.8081H69.1104C71.1613 23.8081 72.8238 25.4706 72.8238 27.5216V31.7369C72.8238 33.7879 71.1613 35.4504 69.1104 35.4504H72.5679C74.6189 35.4504 76.2814 33.7879 76.2814 31.7369V27.5216C76.2823 25.4706 74.6198 23.8081 72.5679 23.8081Z" fill="#000072"/>
</g>
</g>
<g opacity="0.4">
<path opacity="0.4" d="M69.6497 9.01322H31.6164C30.8741 9.01322 30.2715 8.41155 30.2715 7.66921C30.2715 6.92688 30.8732 6.3252 31.6164 6.3252H69.6497C70.3921 6.3252 70.9946 6.92688 70.9946 7.66921C70.9946 8.41155 70.3921 9.01322 69.6497 9.01322Z" fill="#000072"/>
</g>
<g opacity="0.4">
<path opacity="0.4" d="M81.9435 9.01322H76.1808C75.4385 9.01322 74.8359 8.41155 74.8359 7.66921C74.8359 6.92688 75.4376 6.3252 76.1808 6.3252H81.9435C82.6858 6.3252 83.2884 6.92688 83.2884 7.66921C83.2884 8.41155 82.6858 9.01322 81.9435 9.01322Z" fill="#000072"/>
</g>
</g>
</g>
<defs>
<clipPath id="clip0_169_1867">
<rect width="309" height="206" fill="white"/>
</clipPath>
</defs>
</svg>
