<svg width="363" height="363" viewBox="0 0 363 363" fill="none" xmlns="http://www.w3.org/2000/svg">
<g opacity="0.2">
<path opacity="0.2" d="M328.101 287.403C328.101 291.334 262.465 294.521 181.5 294.521C100.534 294.521 34.8984 291.334 34.8984 287.403C34.8984 286.208 40.9932 285.078 51.7534 284.084H311.247C322.006 285.078 328.101 286.208 328.101 287.403Z" fill="#000072"/>
</g>
<path d="M161.92 284.528H136.423C135.634 284.528 134.995 283.888 134.995 283.099C134.995 282.705 135.156 282.347 135.414 282.089C135.673 281.831 136.03 281.671 136.424 281.671H163.75L163.036 284.527L161.92 284.528Z" fill="#000072"/>
<path d="M95.3811 222.936C93.6487 222.643 92.007 223.81 91.7148 225.542L87.9678 247.702L94.2404 248.763L97.9875 226.603C98.2806 224.87 97.1135 223.229 95.3811 222.936Z" fill="#4089FF"/>
<path d="M97.9893 226.602L97.3722 230.253L91.0986 229.192L91.7157 225.541C92.0089 223.811 93.6496 222.644 95.3802 222.937C97.1153 223.23 98.2824 224.871 97.9893 226.602Z" fill="#FFCE00"/>
<path d="M97.3741 231.613C97.2988 231.613 97.2225 231.607 97.1454 231.594L90.8719 230.533C90.1304 230.408 89.6313 229.706 89.7565 228.964L90.3736 225.314C90.576 224.118 91.2312 223.073 92.2204 222.37C93.2087 221.668 94.412 221.391 95.6081 221.594C96.8051 221.797 97.8523 222.453 98.5557 223.441C99.259 224.429 99.5348 225.633 99.3325 226.829L98.7154 230.479C98.6019 231.144 98.0257 231.613 97.3741 231.613ZM92.6678 228.076L96.257 228.683L96.6472 226.375C96.728 225.896 96.6182 225.415 96.3359 225.019C96.0537 224.623 95.6335 224.36 95.1525 224.279C94.6734 224.198 94.1924 224.308 93.7958 224.589C93.4002 224.87 93.137 225.289 93.0562 225.768L92.6678 228.076ZM97.9894 226.602H97.9939H97.9894Z" fill="#2C2C31"/>
<path d="M94.2424 250.126C94.1671 250.126 94.0908 250.12 94.0155 250.107L87.7411 249.046C87.3853 248.987 87.0677 248.787 86.8581 248.493C86.6493 248.199 86.5649 247.833 86.6257 247.477L89.7557 228.965C89.8156 228.61 90.0153 228.292 90.3093 228.082C90.6033 227.874 90.9699 227.79 91.3248 227.85L97.5983 228.911C98.3397 229.036 98.8389 229.738 98.7136 230.48L95.5837 248.992C95.5238 249.348 95.3241 249.665 95.0301 249.875C94.7996 250.039 94.5228 250.126 94.2424 250.126ZM89.537 246.589L93.1271 247.196L95.8033 231.368L92.2141 230.761L89.537 246.589Z" fill="#2C2C31"/>
<path d="M101.584 241.422C101.508 241.422 101.432 241.416 101.355 241.403C100.614 241.278 100.114 240.576 100.24 239.834L100.931 235.746C101.25 233.864 99.9764 232.073 98.0943 231.755L95.9607 231.395C95.2193 231.269 94.7202 230.567 94.8454 229.826C94.9707 229.084 95.6758 228.587 96.4145 228.71L98.548 229.07C101.911 229.639 104.184 232.838 103.616 236.2L102.924 240.288C102.811 240.953 102.235 241.422 101.584 241.422Z" fill="#2C2C31"/>
<path d="M69.7884 256.457L80.1953 254.252L73.4501 222.42L63.0432 224.625L69.7884 256.457Z" fill="#2C2C31"/>
<path d="M69.7876 257.825C69.5262 257.825 69.2676 257.749 69.0452 257.604C68.7421 257.407 68.5307 257.099 68.4553 256.746L62.0312 226.429C61.699 224.86 62.7054 223.311 64.2745 222.978L71.6516 221.416C73.2215 221.083 74.7688 222.09 75.1019 223.659L81.527 253.976C81.6831 254.712 81.213 255.434 80.477 255.589L70.0698 257.795C69.9763 257.815 69.8819 257.825 69.7876 257.825ZM72.255 224.075C72.2423 224.075 72.2287 224.076 72.216 224.078L64.8399 225.641C64.7391 225.663 64.6738 225.763 64.6956 225.863L70.8375 254.849L78.5812 253.208L72.4384 224.223C72.4193 224.135 72.3413 224.075 72.255 224.075Z" fill="#5D5DD3"/>
<path d="M66.9706 223.799L63.042 224.631" stroke="#2C2C31" stroke-width="17.2883" stroke-miterlimit="10" stroke-linecap="round" stroke-linejoin="round"/>
<path d="M68.3193 230.165L64.3916 230.998" stroke="#2C2C31" stroke-width="17.2883" stroke-miterlimit="10" stroke-linecap="round" stroke-linejoin="round"/>
<path d="M69.6688 236.532L65.7402 237.364" stroke="#2C2C31" stroke-width="17.2883" stroke-miterlimit="10" stroke-linecap="round" stroke-linejoin="round"/>
<path d="M71.0175 242.898L67.0898 243.73" stroke="#2C2C31" stroke-width="17.2883" stroke-miterlimit="10" stroke-linecap="round" stroke-linejoin="round"/>
<path d="M72.3661 249.264L68.4385 250.096" stroke="#2C2C31" stroke-width="17.2883" stroke-miterlimit="10" stroke-linecap="round" stroke-linejoin="round"/>
<path d="M73.7157 255.63L69.7871 256.463" stroke="#2C2C31" stroke-width="17.2883" stroke-miterlimit="10" stroke-linecap="round" stroke-linejoin="round"/>
<path d="M96.9476 252.416H66.2441V282.574H96.9476V252.416Z" fill="#F91228"/>
<path d="M96.9473 284.143H66.2439C65.3772 284.143 64.6748 283.44 64.6748 282.574V252.416C64.6748 251.549 65.3772 250.847 66.2439 250.847H96.9473C97.814 250.847 98.5164 251.549 98.5164 252.416V282.574C98.5164 283.44 97.814 284.143 96.9473 284.143ZM67.8129 281.005H95.3783V253.985H67.8129V281.005Z" fill="#2C2C31"/>
<g opacity="0.3">
<path opacity="0.3" d="M98.1302 254.026V256.563C98.1302 257.779 97.475 258.838 96.4949 259.411V282.575H65.7906V277.841H84.3526C89.3166 277.841 93.3405 273.817 93.3405 268.853C93.3405 263.889 89.3166 259.865 84.3526 259.865H67.4577C65.6336 259.865 64.1553 258.387 64.1553 256.563V254.026C64.1553 252.201 65.6336 250.723 67.4577 250.723H94.827C96.6519 250.723 98.1302 252.201 98.1302 254.026Z" fill="#000072"/>
</g>
<path d="M95.2801 246.802H67.9108C66.0867 246.802 64.6084 248.28 64.6084 250.104V252.64C64.6084 254.464 66.0867 255.942 67.9108 255.942H95.2792C97.1033 255.942 98.5816 254.464 98.5816 252.64V250.104C98.5825 248.281 97.1042 246.802 95.2801 246.802Z" fill="#F91228"/>
<g opacity="0.5">
<path opacity="0.5" d="M98.5844 249.196V251.733C98.5844 251.973 98.5608 252.208 98.5099 252.431C98.1923 250.941 96.8665 249.823 95.282 249.823H67.9118C66.3273 249.823 65.0014 250.941 64.6838 252.431C64.633 252.208 64.6094 251.972 64.6094 251.733V249.196C64.6094 247.372 66.0877 245.894 67.9118 245.894H95.2811C97.1051 245.894 98.5844 247.372 98.5844 249.196Z" fill="white"/>
</g>
<path d="M95.2798 257.512H67.9105C65.2243 257.512 63.0391 255.327 63.0391 252.641V250.105C63.0391 247.419 65.2243 245.234 67.9105 245.234H95.2789C97.9651 245.234 100.15 247.419 100.15 250.105V252.641C100.151 255.327 97.966 257.512 95.2798 257.512ZM67.9105 248.371C66.9549 248.371 66.1772 249.149 66.1772 250.104V252.64C66.1772 253.596 66.9549 254.373 67.9105 254.373H95.2789C96.2345 254.373 97.0131 253.596 97.0131 252.64V250.104C97.0131 249.149 96.2354 248.371 95.2789 248.371H67.9105Z" fill="#2C2C31"/>
<path d="M82.5333 221.147C80.7764 221.147 79.3525 222.571 79.3525 224.328V246.803H85.7141V224.328C85.7141 222.571 84.2893 221.147 82.5333 221.147Z" fill="#FFCE00"/>
<path d="M85.7159 224.327V228.03H79.3525V224.327C79.3525 222.571 80.7764 221.148 82.5315 221.148C84.2921 221.148 85.7159 222.571 85.7159 224.327Z" fill="#F91228"/>
<path d="M85.7159 229.39H79.3525C78.6011 229.39 77.9912 228.781 77.9912 228.028V224.326C77.9912 221.822 80.0286 219.786 82.5314 219.786C85.0371 219.786 87.0762 221.823 87.0762 224.326V228.028C87.0771 228.781 86.4673 229.39 85.7159 229.39ZM80.7137 226.667H84.3546V224.326C84.3546 223.324 83.537 222.508 82.5324 222.508C81.5296 222.508 80.7146 223.324 80.7146 224.326V226.667H80.7137Z" fill="#000072"/>
<path d="M85.7159 248.165H79.3525C78.6011 248.165 77.9912 247.556 77.9912 246.804V228.028C77.9912 227.276 78.6011 226.667 79.3525 226.667H85.7159C86.4673 226.667 87.0771 227.276 87.0771 228.028V246.804C87.0771 247.556 86.4673 248.165 85.7159 248.165ZM80.7137 245.442H84.3546V229.389H80.7137V245.442Z" fill="#000072"/>
<path d="M217.065 283.099H242.561C249.649 283.099 256.022 278.787 258.658 272.208C259.49 270.133 259.903 267.943 259.903 265.757C259.903 263.085 259.287 260.422 258.063 257.982L243.927 229.803C238.489 218.963 228.093 211.629 216.292 209.995L191.362 209.649H190.749L165.819 209.995C154.018 211.629 143.622 218.964 138.184 229.803L124.048 258.211V283.066H156.619" fill="#2C2C31"/>
<g opacity="0.35">
<path opacity="0.35" d="M233.847 265.629H215.884V260.411H239.065C239.065 263.293 236.728 265.629 233.847 265.629Z" fill="white"/>
</g>
<g opacity="0.3">
<path opacity="0.3" d="M259.904 265.756C259.904 267.94 259.49 270.133 258.658 272.206C256.02 278.786 249.648 283.098 242.562 283.098H217.066L156.62 283.066H124.048V274.431H156.62L217.066 274.466H242.562C249.649 274.466 256.02 270.153 258.658 263.574C258.937 262.871 259.172 262.157 259.358 261.436C259.723 262.85 259.904 264.303 259.904 265.756Z" fill="#000072"/>
</g>
<g opacity="0.5">
<path opacity="0.5" d="M259.904 265.756C259.904 266.537 259.851 267.32 259.744 268.095C259.487 266.224 258.926 264.397 258.062 262.672L243.925 234.492C242.565 231.782 240.897 229.292 238.973 227.054C232.212 219.19 222.28 214.769 211.911 214.625L191.362 214.339H190.747L170.198 214.625C159.829 214.769 149.897 219.19 143.136 227.054C141.212 229.291 139.543 231.782 138.184 234.492L124.047 262.901V258.21L138.184 229.805C139.543 227.094 141.213 224.603 143.137 222.365C149.898 214.5 159.831 210.078 170.2 209.935L190.747 209.649H191.362L211.909 209.935C222.279 210.079 232.212 214.501 238.972 222.365C240.896 224.603 242.565 227.094 243.924 229.805L258.061 257.981C259.287 260.423 259.904 263.085 259.904 265.756Z" fill="white"/>
</g>
<path d="M242.562 284.526H217.066C216.277 284.526 215.638 283.887 215.638 283.098C215.638 282.309 216.277 281.67 217.066 281.67H242.562C249.102 281.67 254.901 277.747 257.333 271.675C258.091 269.786 258.476 267.795 258.476 265.756C258.476 263.29 257.892 260.823 256.787 258.621L242.651 230.442C237.48 220.134 227.59 213.028 216.183 211.42L191.343 211.076H190.75L170.225 211.36C160.099 211.501 150.62 215.85 144.221 223.294C142.351 225.468 140.75 227.873 139.462 230.441L125.477 258.544V281.635H156.621C157.409 281.635 158.048 282.275 158.048 283.064C158.048 283.852 157.408 284.492 156.621 284.492H122.622V257.873L136.907 229.165C138.302 226.385 140.033 223.784 142.055 221.433C148.989 213.368 159.242 208.657 170.186 208.505L191.362 208.22L216.4 208.568L216.488 208.58C228.863 210.293 239.598 217.988 245.204 229.163L259.34 257.341C260.643 259.94 261.332 262.849 261.332 265.757C261.332 268.162 260.878 270.511 259.984 272.739C257.115 279.899 250.276 284.526 242.562 284.526Z" fill="#2C2C31"/>
<path d="M189.493 220.274H189.491C183.939 220.274 179.438 215.773 179.438 210.22V198.893H199.547V210.22C199.547 215.773 195.046 220.274 189.493 220.274Z" fill="#FFCFAE"/>
<path d="M189.491 221.944C183.161 221.944 178.01 216.793 178.01 210.462V197.707H200.973V210.462C200.973 216.793 195.822 221.944 189.491 221.944ZM180.866 200.563V210.461C180.866 215.217 184.735 219.087 189.491 219.087C194.248 219.087 198.117 215.217 198.117 210.461V200.563H180.866Z" fill="#2C2C31"/>
<path d="M159.334 184.728C165.269 184.728 170.08 179.917 170.08 173.981C170.08 168.046 165.269 163.235 159.334 163.235C153.398 163.235 148.587 168.046 148.587 173.981C148.587 179.917 153.398 184.728 159.334 184.728Z" fill="#FFCFAE"/>
<g opacity="0.3">
<path opacity="0.3" d="M170.08 173.982C170.08 179.917 165.269 184.727 159.334 184.727C153.398 184.727 148.587 179.918 148.587 173.982C148.587 172.957 148.731 171.964 148.999 171.026C150.282 175.526 154.424 178.817 159.334 178.817C164.243 178.817 168.385 175.526 169.668 171.026C169.936 171.964 170.08 172.957 170.08 173.982Z" fill="#000072"/>
</g>
<path d="M159.333 186.155C152.62 186.155 147.158 180.694 147.158 173.98C147.158 167.267 152.62 161.805 159.333 161.805C166.046 161.805 171.507 167.267 171.507 173.98C171.507 180.694 166.046 186.155 159.333 186.155ZM159.333 164.663C154.195 164.663 150.014 168.843 150.014 173.981C150.014 179.119 154.194 183.299 159.333 183.299C164.471 183.299 168.651 179.119 168.651 173.981C168.651 168.843 164.471 164.663 159.333 164.663Z" fill="#2C2C31"/>
<path d="M223.045 153.803C212.522 157.058 200.128 146.26 199.92 147.206C199.526 148.976 201.734 151.061 203.178 151.961C203.598 152.222 203.717 152.693 203.592 153.087C203.492 153.418 203.221 153.693 202.814 153.757C196.469 154.744 183.688 169.741 182.034 176.498H159.891C159.891 176.498 148.724 151.195 152.801 135.227C154.025 130.433 157.922 126.954 165.094 129.436C165.094 129.436 168.127 124.923 173.227 120.408C181.524 113.068 195.281 105.726 210.322 117.815C226.395 130.737 232.145 130.343 232.145 130.343C232.145 130.343 236.737 149.569 223.045 153.803Z" fill="#94452F"/>
<g opacity="0.35">
<path opacity="0.35" d="M203.33 153.506C203.199 153.632 203.024 153.723 202.812 153.756C202.211 153.848 201.557 154.068 200.857 154.392C200.173 153.539 199.722 152.578 199.918 151.694C199.985 151.395 201.271 152.272 203.33 153.506Z" fill="white"/>
<path opacity="0.35" d="M200.786 154.696L200.666 154.545C199.831 153.503 199.49 152.498 199.68 151.64C199.703 151.539 199.77 151.457 199.864 151.417C200.155 151.292 200.602 151.555 202.266 152.571C202.627 152.792 203.025 153.035 203.457 153.294L203.732 153.459L203.5 153.681C203.328 153.847 203.103 153.956 202.852 153.997C202.294 154.083 201.657 154.29 200.96 154.613L200.786 154.696ZM200.13 151.914C200.038 152.69 200.483 153.495 200.931 154.09C201.602 153.793 202.222 153.6 202.775 153.514C202.799 153.511 202.822 153.506 202.844 153.5C202.548 153.32 202.269 153.15 202.01 152.992C201.214 152.504 200.454 152.041 200.13 151.914Z" fill="#000072"/>
</g>
<g opacity="0.35">
<path opacity="0.35" d="M223.044 158.292C215.851 160.517 207.782 156.176 203.332 153.506C203.455 153.39 203.543 153.243 203.592 153.086C203.715 152.691 203.597 152.22 203.177 151.96C201.734 151.061 199.525 148.975 199.919 147.205C200.128 146.259 212.522 157.057 223.044 153.802C230.265 151.571 232.4 145.168 232.807 139.614C233.211 145.599 232.355 155.414 223.044 158.292Z" fill="white"/>
<path opacity="0.35" d="M218.78 159.16C213.062 159.16 207.333 156.193 203.205 153.717L202.926 153.55L203.163 153.328C203.252 153.244 203.319 153.135 203.357 153.013C203.442 152.74 203.38 152.374 203.048 152.168C201.464 151.18 199.261 149.03 199.68 147.151C199.702 147.05 199.77 146.969 199.864 146.928C200.156 146.804 200.602 147.066 202.265 148.081C206.459 150.644 215.184 155.978 222.973 153.566C230.216 151.327 232.186 144.733 232.563 139.595L233.052 139.596C233.444 145.397 232.676 155.569 223.118 158.524L223.045 158.29L223.118 158.524C221.689 158.968 220.235 159.16 218.78 159.16ZM203.698 153.44C208.792 156.472 216.233 160.142 222.972 158.057C230.665 155.679 232.461 148.402 232.626 142.768C231.692 147.342 229.199 152.157 223.117 154.036C215.115 156.511 206.263 151.1 202.008 148.501C201.212 148.014 200.454 147.55 200.13 147.424C199.94 149.011 201.946 150.904 203.306 151.751C203.787 152.05 203.996 152.615 203.825 153.16C203.794 153.259 203.752 153.353 203.698 153.44Z" fill="#000072"/>
</g>
<g opacity="0.3">
<path opacity="0.3" d="M203.592 153.086C203.491 153.416 203.221 153.691 202.813 153.756C196.468 154.743 183.688 169.74 182.033 176.497H163.591C157.955 160.943 162.176 143.939 162.176 143.939C162.176 143.939 192.693 150.708 203.592 153.086Z" fill="#000072"/>
</g>
<path d="M225.991 184.728C231.926 184.728 236.737 179.917 236.737 173.981C236.737 168.046 231.926 163.235 225.991 163.235C220.056 163.235 215.244 168.046 215.244 173.981C215.244 179.917 220.056 184.728 225.991 184.728Z" fill="#FFCFAE"/>
<g opacity="0.3">
<path opacity="0.3" d="M236.737 173.982C236.737 179.917 231.926 184.727 225.991 184.727C220.056 184.727 215.244 179.918 215.244 173.982C215.244 172.957 215.388 171.964 215.656 171.026C216.939 175.524 221.081 178.817 225.991 178.817C230.9 178.817 235.042 175.524 236.325 171.026C236.593 171.964 236.737 172.957 236.737 173.982Z" fill="#000072"/>
</g>
<path d="M225.99 186.155C219.278 186.155 213.815 180.694 213.815 173.98C213.815 167.267 219.277 161.805 225.99 161.805C232.704 161.805 238.165 167.267 238.165 173.98C238.165 180.694 232.703 186.155 225.99 186.155ZM225.99 164.663C220.852 164.663 216.671 168.843 216.671 173.981C216.671 179.119 220.851 183.299 225.99 183.299C231.13 183.299 235.31 179.119 235.31 173.981C235.31 168.843 231.129 164.663 225.99 164.663Z" fill="#2C2C31"/>
<path d="M225.031 176.498C225.031 176.498 233.392 155.648 229.313 139.679C228.088 134.884 224.512 131.037 219.828 129.436" fill="#94452F"/>
<path d="M225.031 177.926C224.854 177.926 224.674 177.894 224.5 177.824C223.769 177.531 223.413 176.699 223.706 175.967C223.788 175.763 231.844 155.354 227.93 140.033C226.823 135.699 223.623 132.243 219.367 130.787C218.621 130.532 218.223 129.72 218.479 128.974C218.734 128.228 219.545 127.83 220.292 128.085C225.462 129.853 229.353 134.055 230.698 139.326C234.844 155.559 226.706 176.16 226.358 177.029C226.133 177.588 225.597 177.926 225.031 177.926Z" fill="#2C2C31"/>
<g opacity="0.3">
<path opacity="0.3" d="M199.546 198.893V209.302C197.324 209.534 195.023 209.648 192.663 209.648C187.964 209.648 183.493 209.197 179.438 208.256V198.893H199.546Z" fill="#000072"/>
</g>
<path d="M225.724 182.067C225.724 198.222 210.802 205.13 192.395 205.13C173.988 205.13 159.066 198.221 159.066 182.067C159.066 178.248 161.352 165.777 162.764 158.431C163.225 156.037 163.932 153.705 164.873 151.473C166.056 148.669 167.615 146.024 169.533 143.636C172.231 140.275 175.687 137.288 179.457 137.288H205.333C209.103 137.288 212.559 140.274 215.257 143.636C218.7 147.926 220.983 153.029 222.025 158.431C222.069 158.661 222.113 158.892 222.159 159.132C223.578 166.544 225.724 178.366 225.724 182.067Z" fill="#FFCFAE"/>
<path d="M171.803 161.077C170.857 161.569 169.874 160.479 170.467 159.592C171.747 157.681 173.819 155.646 176.947 155.312C182.292 154.743 184.467 157.312 183.457 159.007C182.789 160.126 179.402 159.158 176.722 159.497C174.805 159.738 173.122 160.39 171.803 161.077Z" fill="#2C2C31"/>
<path d="M213.022 161.372C213.924 161.843 214.861 160.802 214.295 159.957C213.074 158.135 211.098 156.193 208.115 155.876C203.017 155.333 200.943 157.783 201.906 159.399C202.543 160.467 205.773 159.544 208.329 159.866C210.159 160.096 211.764 160.717 213.022 161.372Z" fill="#2C2C31"/>
<g opacity="0.3">
<path opacity="0.3" d="M225.991 182.067C225.991 198.222 211.069 205.13 192.662 205.13C174.255 205.13 159.333 198.221 159.333 182.067C159.333 181.606 159.367 181.021 159.426 180.333C160.709 194.941 175.1 201.232 192.661 201.232C210.222 201.232 224.61 194.944 225.895 180.336C225.957 181.024 225.991 181.608 225.991 182.067Z" fill="#000072"/>
</g>
<path d="M192.662 206.56C187.714 206.56 183.125 206.071 179.023 205.109C165.405 201.928 157.905 193.745 157.905 182.068C157.905 180.904 158.092 179.016 158.476 176.299C159.24 170.881 160.612 163.446 161.63 158.163C162.73 152.455 165.17 147.122 168.685 142.741C172.354 138.176 176.068 135.861 179.724 135.861H205.6C209.256 135.861 212.97 138.175 216.638 142.74C220.154 147.123 222.595 152.455 223.694 158.163C224.712 163.447 226.084 170.882 226.848 176.3C227.232 179.016 227.419 180.904 227.419 182.069C227.419 193.746 219.919 201.929 206.301 205.11C202.199 206.071 197.61 206.56 192.662 206.56ZM179.724 138.717C176.301 138.717 173.043 141.877 170.912 144.528C167.687 148.549 165.447 153.45 164.434 158.703C163.423 163.953 162.06 171.338 161.304 176.698C160.944 179.247 160.761 181.053 160.761 182.068C160.761 195.161 171.046 200.312 179.673 202.329H179.673C183.562 203.241 187.932 203.703 192.662 203.703C197.392 203.703 201.761 203.241 205.65 202.329C214.278 200.312 224.563 195.161 224.563 182.068C224.563 181.052 224.381 179.246 224.02 176.698C223.265 171.339 221.901 163.953 220.89 158.702C219.878 153.45 217.637 148.549 214.411 144.527C212.281 141.878 209.023 138.717 205.6 138.717H179.724Z" fill="#2C2C31"/>
<g opacity="0.3">
<path opacity="0.3" d="M199.919 152.359C199.525 154.13 201.733 156.214 203.177 157.116C203.944 157.593 203.708 158.771 202.814 158.911C196.956 159.823 177.65 160.248 165.14 151.473C166.323 148.669 167.882 146.024 169.8 143.636C172.498 140.275 175.954 137.288 179.724 137.288H205.6C209.37 137.288 212.826 140.274 215.524 143.636C218.967 147.926 221.25 153.029 222.292 158.431C222.336 158.661 222.38 158.892 222.426 159.132C212.042 161.795 200.123 151.432 199.919 152.359Z" fill="#000072"/>
</g>
<path d="M165.092 129.436C165.092 129.436 186.036 98.2921 210.32 117.813C226.393 130.735 232.146 130.341 232.146 130.341C232.146 130.341 236.737 149.567 223.046 153.802C212.523 157.057 200.13 146.257 199.92 147.203C199.526 148.976 201.734 151.061 203.177 151.96C203.944 152.439 203.708 153.614 202.813 153.754C196.468 154.742 174.351 155.161 162.177 143.939L165.092 129.436Z" fill="#94452F"/>
<path d="M218.863 155.837C213.577 155.837 208.348 153.473 204.64 151.421C205.007 151.947 205.151 152.609 205.016 153.273C204.813 154.267 204.034 155.01 203.031 155.166C196.199 156.231 173.851 156.645 161.208 144.99C160.628 144.456 160.592 143.553 161.126 142.973C161.66 142.393 162.563 142.355 163.143 142.891C174.433 153.298 194.668 153.22 201.453 152.491C199.838 151.217 198.033 149.103 198.524 146.894C198.629 146.422 198.956 146.028 199.4 145.839C200.264 145.473 200.87 145.843 202.882 147.073C206.927 149.545 215.343 154.691 222.621 152.438C233.219 149.16 231.611 135.445 230.947 131.649C228.378 131.177 221.898 128.955 209.424 118.926C203.351 114.045 196.974 112.07 190.47 113.059C176.546 115.175 166.376 130.081 166.276 130.232C165.835 130.886 164.949 131.06 164.294 130.62C163.639 130.18 163.465 129.293 163.905 128.638C164.346 127.982 174.889 112.538 190.04 110.236C197.369 109.122 204.491 111.297 211.212 116.7C226.26 128.798 231.993 128.914 232.087 128.914C232.087 128.914 232.087 128.914 232.087 128.914L233.294 128.831L233.533 130.008C235.228 137.108 235.306 151.503 223.465 155.165C221.952 155.635 220.404 155.837 218.863 155.837Z" fill="#000072"/>
<path d="M239.065 261.839H220.568C219.78 261.839 219.141 261.199 219.141 260.411C219.141 259.622 219.78 258.982 220.568 258.982H239.065C239.853 258.982 240.492 259.622 240.492 260.411C240.492 261.199 239.853 261.839 239.065 261.839Z" fill="#2C2C31"/>
<g opacity="0.5">
<path opacity="0.5" d="M232.807 139.124C232.614 136.307 232.144 134.341 232.144 134.341C232.144 134.341 226.394 134.734 210.321 121.813C208.004 119.949 205.715 118.547 203.476 117.537C203.819 117.991 204.006 118.478 204.006 118.983C204.006 121.434 199.615 123.418 194.197 123.418C188.779 123.418 184.388 121.433 184.388 118.983C184.388 118.189 184.849 117.442 185.656 116.798C180.808 118.483 176.574 121.444 173.226 124.405C168.126 128.92 165.092 133.433 165.092 133.433C157.92 130.951 154.023 134.43 152.799 139.224C152.338 141.033 152.072 142.964 151.964 144.963C151.786 141.367 151.998 137.871 152.799 134.734C154.023 129.94 157.92 126.461 165.092 128.943C165.092 128.943 168.126 124.43 173.226 119.915C181.522 112.575 195.279 105.233 210.32 117.322C226.394 130.244 232.143 129.85 232.143 129.85C232.143 129.85 233.171 134.146 232.807 139.124Z" fill="white"/>
</g>
<path d="M159.891 177.926C159.343 177.926 158.819 177.609 158.584 177.075C158.12 176.023 147.265 151.133 151.417 134.875C152.201 131.808 153.855 129.519 156.202 128.256C158.516 127.011 161.314 126.846 164.531 127.762C167.044 124.345 176.777 112.254 190.043 110.238C197.372 109.124 204.494 111.299 211.215 116.702C226.264 128.801 231.996 128.916 232.09 128.916C232.09 128.916 232.09 128.916 232.09 128.916L233.297 128.833L233.536 130.01C235.231 137.11 235.309 151.504 223.468 155.167C216.758 157.242 209.431 154.071 204.642 151.421C205.009 151.947 205.153 152.609 205.018 153.273C204.815 154.267 204.036 155.01 203.033 155.166C196.202 156.231 173.853 156.645 161.21 144.99C160.63 144.456 160.594 143.553 161.128 142.973C161.662 142.393 162.565 142.356 163.145 142.891C174.435 153.298 194.67 153.22 201.455 152.491C199.84 151.217 198.035 149.103 198.526 146.894C198.631 146.422 198.959 146.028 199.402 145.839C200.266 145.473 200.872 145.843 202.884 147.073C206.929 149.545 215.345 154.692 222.623 152.438C233.221 149.16 231.613 135.445 230.949 131.649C228.38 131.177 221.9 128.955 209.426 118.926C203.357 114.048 196.985 112.073 190.484 113.057C176.581 115.163 166.378 130.082 166.277 130.233L165.663 131.143L164.625 130.784C161.758 129.793 159.38 129.787 157.555 130.769C155.502 131.874 154.588 133.995 154.184 135.579C150.277 150.879 161.087 175.672 161.197 175.921C161.515 176.642 161.188 177.485 160.466 177.804C160.278 177.887 160.083 177.926 159.891 177.926Z" fill="#2C2C31"/>
<path d="M228.436 283.099H150.63C149.09 283.099 147.841 281.851 147.841 280.31C147.841 278.769 149.09 277.52 150.63 277.52H228.436C229.977 277.52 231.226 278.769 231.226 280.31C231.226 281.851 229.977 283.099 228.436 283.099Z" fill="#ADB9C4"/>
<g opacity="0.3">
<path opacity="0.3" d="M231.224 280.31C231.224 281.078 230.913 281.778 230.406 282.28C229.902 282.784 229.206 283.098 228.436 283.098H150.63C149.091 283.098 147.842 281.848 147.842 280.31C147.842 279.799 147.977 279.325 148.217 278.915C148.695 279.75 149.598 280.31 150.63 280.31H228.436C229.207 280.31 229.903 280 230.406 279.493C230.578 279.321 230.727 279.129 230.849 278.915C231.089 279.325 231.224 279.799 231.224 280.31Z" fill="#000072"/>
</g>
<path d="M228.436 284.528H150.63C148.304 284.528 146.413 282.635 146.413 280.309C146.413 277.984 148.305 276.092 150.63 276.092H228.436C230.761 276.092 232.653 277.984 232.653 280.309C232.653 282.635 230.762 284.528 228.436 284.528ZM150.63 278.948C149.88 278.948 149.269 279.559 149.269 280.309C149.269 281.061 149.88 281.671 150.63 281.671H228.436C229.186 281.671 229.797 281.06 229.797 280.309C229.797 279.559 229.186 278.948 228.436 278.948H150.63Z" fill="#2C2C31"/>
<path d="M229.501 277.521H149.566C148.584 277.521 147.757 276.784 147.644 275.806L142.667 232.394C142.479 230.754 143.761 229.316 145.412 229.316H233.654C235.304 229.316 236.587 230.754 236.399 232.394L231.421 275.806C231.31 276.783 230.484 277.521 229.501 277.521Z" fill="#ADB9C4"/>
<g opacity="0.5">
<path opacity="0.5" d="M194.609 258.849C196.812 256.646 196.812 253.074 194.609 250.871C192.406 248.668 188.834 248.668 186.631 250.871C184.428 253.074 184.428 256.646 186.631 258.849C188.834 261.052 192.406 261.052 194.609 258.849Z" fill="white"/>
</g>
<g opacity="0.3">
<path opacity="0.3" d="M236.399 232.392L231.422 275.806C231.309 276.782 230.483 277.52 229.502 277.52H149.566C148.585 277.52 147.756 276.782 147.645 275.806L147.143 271.421H226.612C227.596 271.421 228.422 270.684 228.533 269.708L233.166 229.317H233.655C235.305 229.317 236.587 230.754 236.399 232.392Z" fill="#000072"/>
</g>
<g opacity="0.5">
<path opacity="0.5" d="M236.078 232.392L235.791 234.888C235.338 234.004 234.415 233.388 233.334 233.388H145.091C144.01 233.388 143.087 234.004 142.634 234.888L142.346 232.392C142.159 230.753 143.441 229.317 145.091 229.317H233.334C234.984 229.317 236.266 230.754 236.078 232.392Z" fill="white"/>
</g>
<path d="M229.501 278.948H149.566C147.856 278.948 146.421 277.667 146.226 275.969L141.248 232.557C141.112 231.372 141.489 230.18 142.283 229.29C143.078 228.4 144.218 227.889 145.412 227.889H233.653C234.847 227.889 235.987 228.4 236.781 229.29C237.575 230.18 237.953 231.372 237.817 232.557L232.839 275.969C232.646 277.668 231.21 278.948 229.501 278.948ZM145.413 230.745C145.027 230.745 144.673 230.902 144.416 231.191C144.159 231.48 144.042 231.849 144.086 232.232L149.063 275.644C149.092 275.9 149.308 276.092 149.566 276.092H229.501C229.758 276.092 229.974 275.9 230.003 275.644L234.981 232.232C235.024 231.849 234.907 231.479 234.651 231.191C234.394 230.903 234.04 230.745 233.654 230.745H145.413Z" fill="#2C2C31"/>
<path d="M135.304 281.018C137.847 281.018 139.909 278.599 139.909 275.616C139.909 272.632 137.847 270.213 135.304 270.213C132.761 270.213 130.699 272.632 130.699 275.616C130.699 278.599 132.761 281.018 135.304 281.018Z" fill="#FFCFAE"/>
<path d="M135.304 282.447C131.978 282.447 129.271 279.383 129.271 275.616C129.271 271.849 131.978 268.785 135.304 268.785C138.631 268.785 141.336 271.85 141.336 275.616C141.336 279.382 138.63 282.447 135.304 282.447ZM135.304 271.641C133.552 271.641 132.127 273.424 132.127 275.616C132.127 277.808 133.552 279.59 135.304 279.59C137.055 279.59 138.48 277.808 138.48 275.616C138.48 273.424 137.055 271.641 135.304 271.641Z" fill="#2C2C31"/>
<path d="M131.418 283.065H111.815C110.716 283.065 109.826 282.174 109.826 281.075C109.826 274.564 115.105 269.285 121.616 269.285C128.129 269.285 133.407 274.564 133.407 281.075C133.407 282.174 132.516 283.065 131.418 283.065Z" fill="#ADB9C4"/>
<path d="M131.418 284.493H111.814C109.93 284.493 108.397 282.96 108.397 281.076C108.397 273.787 114.327 267.857 121.616 267.857C128.905 267.857 134.835 273.787 134.835 281.076C134.835 282.96 133.302 284.493 131.418 284.493ZM121.616 270.713C115.902 270.713 111.253 275.362 111.253 281.075C111.253 281.385 111.505 281.636 111.814 281.636H131.418C131.727 281.636 131.979 281.385 131.979 281.075C131.979 275.362 127.33 270.713 121.616 270.713Z" fill="#2C2C31"/>
<path d="M104.339 277.502C105.31 278.548 108.158 280.79 114.128 277.672C120.097 274.555 127.187 273.849 129.491 273.675C133.14 273.399 136.038 271.659 135.107 267.369C134.183 263.112 128.599 259.151 120.666 259.312C104.582 259.637 100.743 273.626 104.339 277.502Z" fill="#FFCFAE"/>
<g opacity="0.2">
<path opacity="0.2" d="M135.107 267.367C134.862 266.237 134.284 265.129 133.425 264.111C133.084 266.824 130.626 268.005 127.675 268.229C125.371 268.403 118.281 269.109 112.312 272.226C107.311 274.838 104.502 273.688 103.151 272.632C102.947 274.678 103.37 276.458 104.339 277.501C105.31 278.548 108.157 280.789 114.127 277.672C120.096 274.555 127.186 273.849 129.49 273.675C133.139 273.398 136.038 271.658 135.107 267.367Z" fill="#000072"/>
</g>
<g opacity="0.5">
<path opacity="0.5" d="M122.028 262.487C128.189 262.363 132.933 264.724 135.177 267.78C135.154 267.643 135.139 267.511 135.108 267.368C134.184 263.111 128.6 259.15 120.667 259.311C104.582 259.636 100.743 273.625 104.339 277.501C104.389 277.554 104.445 277.612 104.504 277.671C103.925 272.13 108.891 262.753 122.028 262.487Z" fill="white"/>
</g>
<path d="M108.64 280.68C105.775 280.68 104.063 279.303 103.292 278.473C101.341 276.371 101.13 272.366 102.767 268.507C105.517 262.026 112.197 258.055 120.637 257.884C129.701 257.702 135.482 262.364 136.502 267.066C136.961 269.183 136.666 270.964 135.624 272.361C134.445 273.942 132.36 274.89 129.598 275.098C126.976 275.297 120.284 276.068 114.787 278.938C112.329 280.222 110.292 280.68 108.64 280.68ZM105.385 276.53C107.037 278.309 109.907 278.266 113.467 276.405C119.219 273.401 125.908 272.512 129.383 272.25C131.271 272.106 132.674 271.539 133.336 270.653C133.862 269.947 133.989 268.944 133.712 267.671C132.959 264.198 128.145 260.589 120.696 260.739C109.906 260.957 106.259 267.593 105.397 269.623C104.074 272.74 104.39 275.457 105.385 276.53Z" fill="#2C2C31"/>
<path d="M122.861 257.944C124.694 257.824 126.522 257.851 128.354 257.912C130.373 257.999 132.371 258.502 134.157 259.387C135.066 259.797 135.89 260.366 136.687 260.938C137.066 261.255 137.463 261.542 137.805 261.896L138.331 262.406L138.82 262.948C139.453 263.683 140.021 264.469 140.475 265.311L140.813 265.94L141.101 266.592C141.2 266.806 141.286 267.026 141.357 267.252L141.469 267.586L141.525 267.752L141.553 267.835L141.567 267.877L141.574 267.898L141.578 267.908L141.58 267.913C141.498 267.953 141.766 267.831 141.396 268.003C141.025 268.172 141.292 268.047 141.208 268.084L141.205 268.079L141.199 268.07L141.186 268.052L141.161 268.017L141.112 267.947L141.014 267.807L140.818 267.528C140.69 267.342 140.563 267.158 140.417 266.985L140.003 266.458L139.56 265.959C139.276 265.622 138.939 265.329 138.639 265.015C138.305 264.731 137.991 264.43 137.641 264.172C136.976 263.618 136.226 263.187 135.497 262.759C134.738 262.373 133.973 262.019 133.174 261.766C131.591 261.217 129.93 261.033 128.299 261.008C126.474 261.008 124.644 260.979 122.82 260.799H122.816C122.029 260.722 121.453 260.021 121.53 259.233C121.599 258.526 122.173 257.989 122.861 257.944Z" fill="#2C2C31"/>
<path d="M125.173 263.954C125.88 264.567 126.464 265.273 127.007 266.025C127.537 266.783 128.006 267.595 128.391 268.466C128.764 269.34 129.073 270.272 129.201 271.263C129.311 272.256 129.257 273.313 128.909 274.307C128.657 275.029 127.868 275.41 127.146 275.158C126.579 274.961 126.222 274.431 126.218 273.862L126.217 273.708C126.212 272.982 126.239 272.279 126.215 271.525C126.166 270.772 126.123 269.985 126.007 269.176C125.759 267.562 125.33 265.893 124.844 264.172L124.842 264.163C124.811 264.054 124.874 263.942 124.982 263.911C125.051 263.892 125.122 263.91 125.173 263.954Z" fill="#2C2C31"/>
<path d="M117.94 265.454C118.524 266.137 119.03 266.856 119.518 267.587C119.996 268.321 120.449 269.071 120.867 269.837C121.283 270.604 121.691 271.38 122.009 272.195C122.326 273.01 122.594 273.851 122.712 274.743C122.813 275.507 122.276 276.208 121.512 276.309C120.905 276.389 120.338 276.067 120.08 275.548L120.067 275.521C119.696 274.773 119.427 273.988 119.181 273.187C118.93 272.388 118.744 271.56 118.547 270.73C118.16 269.066 117.794 267.38 117.58 265.614C117.566 265.502 117.646 265.398 117.759 265.384C117.828 265.375 117.896 265.404 117.94 265.454Z" fill="#2C2C31"/>
<path d="M110.883 269.598C111.49 270.098 112.023 270.644 112.541 271.205C113.049 271.771 113.534 272.355 113.986 272.963C114.435 273.573 114.879 274.193 115.236 274.865C115.591 275.537 115.902 276.244 116.062 277.022C116.218 277.779 115.731 278.519 114.974 278.676C114.399 278.795 113.834 278.542 113.527 278.082L113.5 278.042C113.11 277.454 112.813 276.819 112.535 276.164C112.253 275.511 112.026 274.82 111.789 274.127C111.321 272.737 110.864 271.321 110.547 269.804C110.524 269.691 110.596 269.58 110.708 269.556C110.772 269.542 110.836 269.56 110.883 269.598Z" fill="#2C2C31"/>
<path d="M195.773 175.656C195.183 175.656 194.703 175.177 194.703 174.586C194.703 174.396 194.655 174.147 194.279 173.908C193.919 173.679 193.392 173.549 192.83 173.549C192.106 173.549 190.957 173.83 190.957 174.586C190.957 175.177 190.478 175.656 189.887 175.656C189.297 175.656 188.817 175.177 188.817 174.586C188.817 172.744 190.505 171.408 192.83 171.408C195.155 171.408 196.843 172.744 196.843 174.586C196.843 175.177 196.364 175.656 195.773 175.656Z" fill="#2C2C31"/>
<path d="M177.506 188.037C170.088 188.037 164.054 182.003 164.054 174.585C164.054 167.167 170.089 161.133 177.506 161.133C184.923 161.133 190.957 167.167 190.957 174.585C190.957 182.003 184.923 188.037 177.506 188.037ZM177.506 163.274C171.268 163.274 166.194 168.348 166.194 174.586C166.194 180.824 171.268 185.898 177.506 185.898C183.743 185.898 188.818 180.823 188.818 174.586C188.818 168.348 183.743 163.274 177.506 163.274Z" fill="#2C2C31"/>
<path d="M207.818 187.613C200.634 187.613 194.791 181.769 194.791 174.586C194.791 167.402 200.635 161.559 207.818 161.559C215.001 161.559 220.845 167.402 220.845 174.586C220.845 181.769 215.001 187.613 207.818 187.613ZM207.818 163.631C201.778 163.631 196.864 168.545 196.864 174.586C196.864 180.626 201.778 185.54 207.818 185.54C213.859 185.54 218.773 180.626 218.773 174.586C218.773 168.545 213.859 163.631 207.818 163.631Z" fill="#2C2C31"/>
<path d="M165.362 173.785H158.402C157.86 173.785 157.421 173.346 157.421 172.804C157.421 172.262 157.86 171.823 158.402 171.823H165.362C165.903 171.823 166.343 172.262 166.343 172.804C166.343 173.346 165.903 173.785 165.362 173.785Z" fill="#2C2C31"/>
<path d="M226.334 173.785H219.808C219.266 173.785 218.827 173.346 218.827 172.804C218.827 172.262 219.266 171.823 219.808 171.823H226.334C226.876 171.823 227.315 172.262 227.315 172.804C227.315 173.346 226.876 173.785 226.334 173.785Z" fill="#2C2C31"/>
<path d="M121.201 284.493C120.412 284.493 119.773 283.853 119.773 283.065V275.616C119.773 274.827 120.412 274.188 121.201 274.188C121.99 274.188 122.628 274.827 122.628 275.616V283.065C122.629 283.853 121.99 284.493 121.201 284.493Z" fill="#2C2C31"/>
<path d="M178.792 183.321C182.407 182.982 184.981 178.907 184.541 174.221C184.101 169.534 180.813 166.01 177.198 166.35C173.583 166.689 171.009 170.764 171.449 175.45C171.889 180.137 175.177 183.661 178.792 183.321Z" fill="#2C2C31"/>
<path d="M180.457 175.819C181.424 175.707 182.056 174.309 181.869 172.696C181.682 171.083 180.747 169.867 179.78 169.979C178.813 170.091 178.181 171.489 178.368 173.102C178.554 174.714 179.49 175.931 180.457 175.819Z" fill="white"/>
<path d="M175.981 177.435C176.005 178.246 175.629 178.898 175.142 178.891C174.654 178.884 174.24 178.221 174.217 177.409C174.193 176.598 174.569 175.945 175.056 175.953C175.544 175.96 175.957 176.623 175.981 177.435Z" fill="white"/>
<path d="M214.461 175.442C214.901 170.755 212.327 166.681 208.712 166.341C205.097 166.002 201.809 169.525 201.369 174.212C200.929 178.899 203.503 182.973 207.118 183.313C210.733 183.652 214.021 180.128 214.461 175.442Z" fill="#2C2C31"/>
<path d="M207.582 173.086C207.769 171.473 207.136 170.075 206.17 169.963C205.203 169.851 204.267 171.067 204.081 172.68C203.894 174.293 204.526 175.691 205.493 175.803C206.46 175.915 207.395 174.698 207.582 173.086Z" fill="white"/>
<path d="M209.949 177.434C209.926 178.245 210.301 178.898 210.789 178.891C211.276 178.883 211.69 178.22 211.713 177.409C211.737 176.597 211.361 175.945 210.874 175.952C210.387 175.959 209.973 176.623 209.949 177.434Z" fill="white"/>
<path d="M184.253 188.797C184.253 190.589 184.817 192.497 185.957 194.032C187.277 195.828 189.365 197.112 192.221 197.112C194.585 197.112 196.748 195.836 198.225 194.012C199.444 192.512 200.189 190.636 200.189 188.797C200.189 186.801 199.328 186.773 197.933 187.265C197.416 187.441 196.825 187.697 196.177 187.945C195.012 188.393 193.665 188.832 192.221 188.832C190.705 188.832 189.289 188.36 188.085 187.9C187.417 187.644 186.809 187.397 186.293 187.232C185.022 186.838 184.253 186.957 184.253 188.797Z" fill="#2C2C31"/>
<path d="M186.078 188.001C186.078 189.528 187.489 191.039 189.538 191.232C191.588 191.425 192.623 191.425 194.672 191.232C196.994 191.013 198.499 189.105 198.06 187.395C198.028 187.27 197.986 187.144 197.935 187.024C197.417 187.202 196.827 187.458 196.179 187.704C195.013 188.153 193.664 188.592 192.222 188.592C190.706 188.592 189.29 188.122 188.087 187.662C187.419 187.406 186.812 187.155 186.294 186.993C186.237 187.124 186.195 187.255 186.158 187.396C186.104 187.594 186.078 187.797 186.078 188.001Z" fill="white"/>
<path d="M185.957 193.792C187.277 195.588 189.365 196.872 192.221 196.872C194.585 196.872 196.748 195.597 198.225 193.772C197.185 193.108 194.069 192.229 192.657 193.412C192.217 193.784 192.109 194.492 192.109 194.492C192.109 194.492 192.001 193.784 191.557 193.412C190.129 192.216 186.965 193.125 185.957 193.792Z" fill="#FF4AA1"/>
<path d="M192.221 197.032C188.847 197.032 186.882 195.322 185.827 193.888C185.801 193.852 185.791 193.808 185.798 193.764C185.806 193.721 185.831 193.683 185.868 193.658C186.877 192.988 190.158 192.031 191.66 193.289C191.873 193.468 192.015 193.712 192.108 193.931C192.201 193.712 192.341 193.468 192.553 193.29C194.041 192.043 197.263 192.968 198.311 193.637C198.349 193.662 198.375 193.702 198.383 193.747C198.39 193.792 198.378 193.839 198.349 193.874C196.725 195.882 194.491 197.032 192.221 197.032ZM186.191 193.837C187.226 195.181 189.091 196.712 192.221 196.712C194.339 196.712 196.429 195.658 197.981 193.816C196.879 193.213 194.039 192.461 192.76 193.536C192.372 193.862 192.268 194.51 192.267 194.517C192.242 194.674 191.974 194.674 191.949 194.517C191.948 194.51 191.844 193.863 191.453 193.536C190.188 192.475 187.318 193.192 186.191 193.837Z" fill="#390075"/>
<path d="M192.221 197.744C186.479 197.744 183.382 193.01 183.382 188.555C183.382 187.839 183.469 186.823 184.22 186.272C184.933 185.747 185.841 185.936 186.554 186.159C186.966 186.288 187.415 186.463 187.891 186.65L188.398 186.846C189.584 187.3 190.867 187.719 192.221 187.719C193.535 187.719 194.8 187.3 195.864 186.889C196.127 186.789 196.375 186.69 196.614 186.594C196.984 186.446 197.331 186.308 197.65 186.198C198.483 185.905 199.441 185.675 200.19 186.205C200.97 186.756 201.06 187.811 201.06 188.555C201.06 192.893 197.28 197.744 192.221 197.744ZM185.239 187.687C185.246 187.694 185.127 187.883 185.127 188.556C185.127 192.164 187.613 195.999 192.221 195.999C196.216 195.999 199.315 191.998 199.315 188.556C199.315 187.795 199.171 187.622 199.171 187.62C199.167 187.628 198.967 187.586 198.225 187.847C197.924 187.951 197.604 188.079 197.263 188.216C197.015 188.315 196.756 188.418 196.488 188.52C195.279 188.986 193.822 189.465 192.222 189.465C190.579 189.465 189.053 188.966 187.775 188.477L187.257 188.276C186.809 188.101 186.387 187.936 186.033 187.825C185.446 187.642 185.269 187.678 185.239 187.687Z" fill="#2C2C31"/>
<path d="M189.642 259.52C192.757 259.52 195.283 256.995 195.283 253.879C195.283 250.764 192.757 248.238 189.642 248.238C186.527 248.238 184.001 250.764 184.001 253.879C184.001 256.995 186.527 259.52 189.642 259.52Z" fill="#2C2C31"/>
<g opacity="0.2">
<path opacity="0.2" d="M137.52 271.688C137.52 271.688 138.289 278.49 132.67 275.616L133.407 278.35L134.419 281.019L137.013 280.311L139.114 278.652L139.833 274.634L139.372 273.086L137.52 271.688Z" fill="#2C2C31"/>
</g>
<path d="M48.0975 283.417C53.6559 282.595 59.2144 282.398 64.7728 282.297C70.3312 282.183 75.8897 282.243 81.4481 282.305L89.7862 282.355L98.1243 282.358H114.799H181.5H248.201H281.552L289.89 282.355L294.059 282.317L298.228 282.251C301.007 282.216 303.787 282.27 306.566 282.402C309.345 282.575 312.125 282.816 314.904 283.416C315.197 283.479 315.383 283.767 315.319 284.059C315.273 284.273 315.105 284.43 314.904 284.474C312.126 285.074 309.346 285.315 306.566 285.488C303.787 285.621 301.008 285.674 298.228 285.639L294.059 285.573L289.89 285.535L281.552 285.532H248.201H181.5H114.799H98.1234L89.7853 285.535L81.4472 285.585C75.8888 285.646 70.3303 285.707 64.7719 285.593C59.2134 285.492 53.655 285.295 48.0966 284.473C47.8044 284.429 47.602 284.158 47.6455 283.865C47.6818 283.629 47.8706 283.45 48.0975 283.417Z" fill="#2C2C31"/>
<path d="M291.755 259.859C291.24 259.859 290.743 259.586 290.479 259.103L283.245 245.849C282.861 245.145 283.12 244.263 283.824 243.879C284.528 243.495 285.41 243.754 285.794 244.458L293.028 257.712C293.412 258.416 293.153 259.298 292.449 259.682C292.227 259.802 291.99 259.859 291.755 259.859Z" fill="#000072"/>
<path d="M299.835 246.496L299.573 249.895L296.967 283.632H275.929L273.323 249.895L273.062 246.496H299.835Z" fill="white"/>
<path d="M297.177 283.859H275.72L272.817 246.269H300.08L297.177 283.859ZM276.139 283.405H296.756L299.589 246.723H273.307L276.139 283.405Z" fill="#000072"/>
<g opacity="0.3">
<path opacity="0.3" d="M299.835 246.496L296.967 283.632H275.929L273.062 246.496H273.273L275.678 277.631H287.265C291.563 277.631 295.137 274.322 295.468 270.037L297.285 246.495H299.835V246.496Z" fill="#000072"/>
</g>
<g opacity="0.3">
<path opacity="0.3" d="M299.835 246.496L299.573 249.895H273.323L273.062 246.496H299.835Z" fill="#000072"/>
</g>
<path d="M301.6 246.496H271.296C270.143 246.496 269.208 245.562 269.208 244.408V241.895C269.208 240.742 270.143 239.807 271.296 239.807H301.6C302.754 239.807 303.688 240.742 303.688 241.895V244.408C303.688 245.562 302.753 246.496 301.6 246.496Z" fill="#26BA02"/>
<path d="M301.601 246.723H271.296C270.021 246.723 268.981 245.685 268.981 244.408V241.895C268.981 240.618 270.02 239.58 271.296 239.58H301.601C302.877 239.58 303.916 240.618 303.916 241.895V244.408C303.915 245.685 302.877 246.723 301.601 246.723ZM271.296 240.035C270.27 240.035 269.435 240.87 269.435 241.896V244.409C269.435 245.435 270.27 246.27 271.296 246.27H301.601C302.627 246.27 303.462 245.435 303.462 244.409V241.896C303.462 240.87 302.627 240.035 301.601 240.035H271.296Z" fill="#000072"/>
<g opacity="0.5">
<path opacity="0.5" d="M303.687 241.681V243.531C303.687 242.747 303.051 242.112 302.27 242.112H270.626C269.844 242.112 269.209 242.747 269.209 243.531V241.681C269.209 240.896 269.844 240.261 270.626 240.261H302.27C303.051 240.261 303.687 240.896 303.687 241.681Z" fill="white"/>
</g>
<g opacity="0.3">
<path opacity="0.3" d="M303.687 242.458V245.077C303.687 245.861 303.051 246.496 302.27 246.496H270.626C269.844 246.496 269.209 245.861 269.209 245.077V242.458C269.209 243.242 269.844 243.877 270.626 243.877H302.27C303.051 243.877 303.687 243.243 303.687 242.458Z" fill="#000072"/>
</g>
<path d="M299.953 239.808H272.942V239.133C272.942 236.612 274.986 234.569 277.506 234.569H295.388C297.909 234.569 299.952 236.613 299.952 239.133V239.808H299.953Z" fill="#26BA02"/>
<path d="M300.18 240.035H272.716V239.132C272.716 236.491 274.865 234.342 277.507 234.342H295.39C298.031 234.342 300.18 236.491 300.18 239.132V240.035ZM273.17 239.581H299.727V239.132C299.727 236.741 297.781 234.796 295.39 234.796H277.507C275.115 234.796 273.17 236.741 273.17 239.132V239.581Z" fill="#000072"/>
<g opacity="0.5">
<path opacity="0.5" d="M299.954 237.858V239.808H299.941C299.805 238.115 298.389 236.787 296.663 236.787H276.232C274.507 236.787 273.09 238.115 272.954 239.808H272.941V237.858C272.941 236.041 274.415 234.57 276.232 234.57H296.663C298.48 234.57 299.954 236.042 299.954 237.858Z" fill="white"/>
</g>
<path d="M301.6 247.857H271.296C269.394 247.857 267.847 246.31 267.847 244.408V241.895C267.847 239.993 269.394 238.446 271.296 238.446H301.6C303.502 238.446 305.05 239.993 305.05 241.895V244.408C305.049 246.31 303.501 247.857 301.6 247.857ZM271.296 241.169C270.896 241.169 270.569 241.495 270.569 241.896V244.409C270.569 244.809 270.895 245.136 271.296 245.136H301.6C302.001 245.136 302.327 244.81 302.327 244.409V241.896C302.327 241.496 302.001 241.169 301.6 241.169H271.296Z" fill="#2C2C31"/>
<path d="M301.314 241.169H271.581V239.133C271.581 235.866 274.239 233.208 277.506 233.208H295.389C298.656 233.208 301.314 235.866 301.314 239.133V241.169ZM274.378 238.447H298.518C298.204 237.009 296.92 235.93 295.389 235.93H277.506C275.976 235.93 274.693 237.009 274.378 238.447Z" fill="#2C2C31"/>
<path d="M299.24 254.196L297.881 271.778H275.014L273.656 254.196H299.24Z" fill="#26BA02"/>
<path d="M283.814 265.552C283.941 265.667 284.08 265.762 284.234 265.837C285.559 266.48 287.441 265.334 288.435 263.281C289.176 261.754 289.22 260.152 288.65 259.168C288.163 259.332 286.919 259.899 286.784 261.474C286.698 262.494 286.438 265.542 283.814 265.552Z" fill="white"/>
<path d="M283.239 264.669C283.339 264.542 283.499 264.464 283.674 264.475C284.548 264.515 285.475 264.188 285.715 261.387C285.852 259.764 286.873 258.825 287.771 258.369C286.451 257.799 284.618 258.939 283.64 260.957C282.991 262.293 282.876 263.682 283.239 264.669Z" fill="white"/>
<g opacity="0.3">
<path opacity="0.3" d="M299.24 254.196L297.882 271.778H275.015L274.776 268.689H286.984C291.143 268.689 294.603 265.487 294.923 261.34L295.475 254.197H299.24V254.196Z" fill="#000072"/>
</g>
<path d="M298.932 272.912H273.964L272.431 253.061H300.465L298.932 272.912ZM276.064 270.643H296.832L298.014 255.33H274.882L276.064 270.643Z" fill="#000072"/>
<path d="M298.311 285.083H274.586L271.491 245.046H301.405L298.311 285.083ZM277.274 282.179H295.622L298.267 247.95H274.628L277.274 282.179Z" fill="#000072"/>
<g opacity="0.4">
<g opacity="0.4">
<path opacity="0.4" d="M283.153 222.937L283.108 221.35C283.098 220.777 283.211 220.195 283.449 219.663C283.919 218.6 284.867 217.743 286.008 217.411C286.573 217.229 287.2 217.227 287.699 217.219L289.282 217.184L292.449 217.123L298.784 217.037L300.367 217.015C300.859 217.01 301.262 216.944 301.681 216.785C302.497 216.475 303.179 215.834 303.538 215.049C303.902 214.271 303.955 213.346 303.673 212.537C303.398 211.727 302.79 211.036 302.029 210.656C301.65 210.465 301.234 210.349 300.811 210.315L300.485 210.302L300.09 210.305L299.297 210.31L296.13 210.319L283.461 210.326L270.791 210.283L269.999 210.279L269.603 210.276L269.401 210.274L269.158 210.261C268.514 210.221 267.874 210.03 267.319 209.698C266.197 209.052 265.415 207.863 265.273 206.577C265.111 205.3 265.604 203.965 266.529 203.089C266.991 202.651 267.553 202.319 268.16 202.128C268.756 201.923 269.462 201.935 269.94 201.947L282.609 202.098C286.833 202.179 291.056 202.234 295.279 202.347C295.434 202.352 295.556 202.481 295.551 202.635C295.548 202.785 295.426 202.903 295.279 202.908C291.056 203.022 286.833 203.076 282.609 203.158L269.94 203.308C269.367 203.31 268.997 203.314 268.587 203.457C268.19 203.593 267.826 203.821 267.529 204.115C266.936 204.708 266.64 205.57 266.763 206.393C266.867 207.211 267.372 207.964 268.091 208.365C268.445 208.573 268.847 208.685 269.256 208.706L269.409 208.713H269.603L269.999 208.711L270.791 208.706L283.461 208.663L296.13 208.671L299.297 208.679L300.09 208.684L300.485 208.687L300.951 208.711C301.579 208.77 302.197 208.952 302.755 209.244C303.875 209.825 304.748 210.85 305.137 212.047C305.53 213.24 305.442 214.577 304.883 215.697C304.33 216.818 303.333 217.698 302.162 218.106C301.59 218.316 300.931 218.392 300.367 218.378L298.784 218.356L292.449 218.27L289.282 218.209L287.699 218.174C287.144 218.159 286.701 218.141 286.248 218.263C285.343 218.481 284.546 219.13 284.124 219.98C283.911 220.403 283.783 220.873 283.763 221.356L283.714 222.936C283.709 223.091 283.58 223.212 283.425 223.208C283.276 223.205 283.158 223.084 283.153 222.937Z" fill="#000072"/>
</g>
<g opacity="0.4">
<path opacity="0.4" d="M300.73 202.405C301.119 202.197 301.506 202.101 301.894 202.031C302.283 201.967 302.67 201.948 303.059 201.961C303.447 201.972 303.835 202.004 304.223 202.073C304.611 202.148 304.999 202.234 305.387 202.405C305.511 202.459 305.567 202.603 305.513 202.728C305.487 202.786 305.441 202.829 305.387 202.853C304.999 203.023 304.611 203.111 304.223 203.184C303.835 203.253 303.447 203.286 303.059 203.297C302.67 203.308 302.283 203.29 301.894 203.227C301.506 203.157 301.119 203.06 300.73 202.852C300.607 202.786 300.559 202.631 300.626 202.508C300.65 202.463 300.687 202.428 300.73 202.405Z" fill="#000072"/>
</g>
<g opacity="0.4">
<path opacity="0.4" d="M293.311 195.32C294.845 195.058 296.38 194.941 297.914 194.852C299.449 194.782 300.984 194.744 302.518 194.769C303.286 194.775 304.053 194.781 304.82 194.811C305.588 194.829 306.355 194.863 307.123 194.908C308.657 194.995 310.192 195.107 311.727 195.319C311.882 195.34 311.99 195.483 311.968 195.638C311.95 195.766 311.849 195.863 311.727 195.879C310.192 196.091 308.657 196.204 307.123 196.291C306.355 196.335 305.588 196.369 304.82 196.387C304.054 196.417 303.286 196.423 302.518 196.43C300.984 196.455 299.449 196.417 297.914 196.347C296.38 196.258 294.845 196.141 293.311 195.879C293.155 195.853 293.052 195.706 293.078 195.552C293.098 195.429 293.194 195.339 293.311 195.32Z" fill="#000072"/>
</g>
</g>
<g opacity="0.4">
<g opacity="0.4">
<g opacity="0.4">
<g opacity="0.4">
<path opacity="0.4" d="M263.658 100.255C260.963 100.255 258.771 98.0621 258.771 95.3668V91.2931C258.771 88.5978 260.963 86.4053 263.658 86.4053H279.324C282.019 86.4053 284.211 88.5978 284.211 91.2931V95.3668C284.211 98.0621 282.019 100.255 279.324 100.255H263.658Z" fill="#FF6F48"/>
</g>
<g opacity="0.4">
<g opacity="0.4">
<path opacity="0.4" d="M279.323 87.7041C281.305 87.7041 282.912 89.3112 282.912 91.2932V95.367C282.912 97.349 281.304 98.9552 279.323 98.9552H263.658C261.676 98.9552 260.07 97.349 260.07 95.367V91.2932C260.07 89.3112 261.677 87.7041 263.658 87.7041H279.323ZM279.323 85.105H263.658C260.246 85.105 257.471 87.881 257.471 91.2923V95.3661C257.471 98.7783 260.246 101.553 263.658 101.553H279.323C282.736 101.553 285.511 98.7783 285.511 95.3661V91.2923C285.511 87.881 282.736 85.105 279.323 85.105Z" fill="#000072"/>
</g>
</g>
</g>
<g opacity="0.5">
<path opacity="0.5" d="M261.925 96.4805V92.4068C261.925 90.4248 263.532 88.8185 265.514 88.8185H281.18C281.466 88.8185 281.742 88.8557 282.009 88.9183C281.351 88.1751 280.394 87.7041 279.324 87.7041H263.659C261.677 87.7041 260.07 89.3104 260.07 91.2924V95.3661C260.07 97.0622 261.248 98.4797 262.83 98.8545C262.268 98.222 261.925 97.3917 261.925 96.4805Z" fill="white"/>
</g>
<g opacity="0.3">
<path opacity="0.3" d="M279.324 87.7041H275.982C277.964 87.7041 279.571 89.3104 279.571 91.2923V95.3661C279.571 97.3481 277.964 98.9544 275.982 98.9544H279.324C281.306 98.9544 282.913 97.3481 282.913 95.3661V91.2923C282.913 89.3104 281.306 87.7041 279.324 87.7041Z" fill="#000072"/>
</g>
<g opacity="0.4">
<g opacity="0.4">
<path opacity="0.4" d="M251.135 86.0261C248.44 86.0261 246.247 83.8336 246.247 81.1383V77.0646C246.247 74.3693 248.441 72.1768 251.135 72.1768H266.8C269.495 72.1768 271.688 74.3693 271.688 77.0646V81.1383C271.688 83.8336 269.495 86.0261 266.8 86.0261H251.135Z" fill="#FF6F48"/>
</g>
<g opacity="0.4">
<path opacity="0.4" d="M266.8 73.4756C268.782 73.4756 270.389 75.0828 270.389 77.0639V81.1376C270.389 83.1196 268.782 84.7268 266.8 84.7268H251.135C249.153 84.7268 247.545 83.1196 247.545 81.1376V77.0648C247.545 75.0828 249.153 73.4765 251.135 73.4765H266.8V73.4756ZM266.8 70.8774H251.135C247.722 70.8774 244.947 73.6526 244.947 77.0648V81.1385C244.947 84.5507 247.723 87.3259 251.135 87.3259H266.8C270.212 87.3259 272.987 84.5498 272.987 81.1385V77.0648C272.987 73.6526 270.211 70.8774 266.8 70.8774Z" fill="#000072"/>
</g>
</g>
<g opacity="0.5">
<path opacity="0.5" d="M249.774 82.6233V78.5495C249.774 76.5675 251.38 74.9612 253.362 74.9612H269.027C269.278 74.9612 269.523 74.9876 269.759 75.0366C269.112 74.0946 268.028 73.4766 266.799 73.4766H251.134C249.152 73.4766 247.545 75.0837 247.545 77.0648V81.1386C247.545 82.8701 248.771 84.3139 250.402 84.6524C250.006 84.0744 249.774 83.3765 249.774 82.6233Z" fill="white"/>
</g>
<g opacity="0.4">
<g opacity="0.4">
<path opacity="0.4" d="M276.553 86.0261C273.858 86.0261 271.665 83.8336 271.665 81.1383V77.0646C271.665 74.3693 273.858 72.1768 276.553 72.1768H292.218C294.913 72.1768 297.106 74.3693 297.106 77.0646V81.1383C297.106 83.8336 294.913 86.0261 292.218 86.0261H276.553Z" fill="#FF6F48"/>
</g>
<g opacity="0.4">
<path opacity="0.4" d="M292.219 73.4756C294.201 73.4756 295.807 75.0828 295.807 77.0639V81.1376C295.807 83.1196 294.2 84.7268 292.219 84.7268H276.554C274.572 84.7268 272.965 83.1196 272.965 81.1376V77.0648C272.965 75.0828 274.572 73.4765 276.554 73.4765H292.219V73.4756ZM292.219 70.8774H276.554C273.141 70.8774 270.366 73.6526 270.366 77.0648V81.1385C270.366 84.5507 273.141 87.3259 276.554 87.3259H292.219C295.631 87.3259 298.406 84.5498 298.406 81.1385V77.0648C298.406 73.6526 295.63 70.8774 292.219 70.8774Z" fill="#000072"/>
</g>
</g>
<g opacity="0.5">
<path opacity="0.5" d="M274.449 82.2519V78.1782C274.449 76.1962 276.057 74.589 278.038 74.589H293.703C294.175 74.589 294.624 74.6825 295.037 74.8477C294.38 74.0128 293.363 73.4746 292.217 73.4746H276.552C274.57 73.4746 272.964 75.0818 272.964 77.0629V81.1366C272.964 82.6467 273.898 83.9363 275.218 84.4662C274.739 83.8573 274.449 83.0887 274.449 82.2519Z" fill="white"/>
</g>
<g opacity="0.3">
<path opacity="0.3" d="M266.799 73.4756H263.458C265.44 73.4756 267.046 75.0828 267.046 77.0638V81.1376C267.046 83.1196 265.44 84.7259 263.458 84.7259H266.799C268.781 84.7259 270.388 83.1196 270.388 81.1376V77.0647C270.388 75.0828 268.781 73.4756 266.799 73.4756Z" fill="#000072"/>
</g>
<g opacity="0.3">
<path opacity="0.3" d="M292.219 73.4756H288.878C290.86 73.4756 292.466 75.0828 292.466 77.0638V81.1376C292.466 83.1196 290.86 84.7259 288.878 84.7259H292.219C294.201 84.7259 295.809 83.1196 295.809 81.1376V77.0647C295.808 75.0828 294.201 73.4756 292.219 73.4756Z" fill="#000072"/>
</g>
</g>
<g opacity="0.4">
<path opacity="0.4" d="M302.861 73.4077H239.75C239.032 73.4077 238.45 72.826 238.45 72.1081C238.45 71.3903 239.032 70.8086 239.75 70.8086H302.861C303.579 70.8086 304.16 71.3903 304.16 72.1081C304.16 72.826 303.579 73.4077 302.861 73.4077Z" fill="#000072"/>
</g>
<g opacity="0.4">
<path opacity="0.4" d="M310.286 73.4077H306.944C306.226 73.4077 305.645 72.826 305.645 72.1081C305.645 71.3903 306.226 70.8086 306.944 70.8086H310.286C311.003 70.8086 311.585 71.3903 311.585 72.1081C311.585 72.826 311.003 73.4077 310.286 73.4077Z" fill="#000072"/>
</g>
</g>
<g opacity="0.4">
<g opacity="0.4">
<g opacity="0.4">
<g opacity="0.4">
<g opacity="0.4">
<path opacity="0.4" d="M71.3978 121.411C68.6335 121.411 66.3848 119.162 66.3848 116.398V112.181C66.3848 109.417 68.6335 107.168 71.3978 107.168H87.6094C90.3736 107.168 92.6224 109.417 92.6224 112.181V116.398C92.6224 119.162 90.3736 121.411 87.6094 121.411H71.3978Z" fill="#FF6F48"/>
</g>
<g opacity="0.4">
<path opacity="0.4" d="M87.6082 108.469C89.6591 108.469 91.3217 110.131 91.3217 112.182V116.398C91.3217 118.448 89.6591 120.111 87.6082 120.111H71.3975C69.3466 120.111 67.684 118.448 67.684 116.398V112.182C67.684 110.131 69.3466 108.469 71.3975 108.469H87.6082ZM87.6082 105.87H71.3975C67.9173 105.87 65.085 108.701 65.085 112.182V116.398C65.085 119.878 67.9164 122.71 71.3975 122.71H87.6091C91.0894 122.71 93.9217 119.879 93.9217 116.398V112.182C93.9208 108.701 91.0894 105.87 87.6082 105.87Z" fill="#000072"/>
</g>
</g>
</g>
<g opacity="0.5">
<path opacity="0.5" d="M69.9877 117.934V113.719C69.9877 111.668 71.6503 110.005 73.7012 110.005H89.9128C90.1724 110.005 90.4255 110.032 90.6697 110.083C89.9999 109.109 88.8792 108.469 87.6078 108.469H71.3971C69.3461 108.469 67.6836 110.131 67.6836 112.182V116.398C67.6836 118.189 68.9523 119.684 70.6402 120.034C70.2291 119.436 69.9877 118.714 69.9877 117.934Z" fill="white"/>
</g>
<g opacity="0.3">
<path opacity="0.3" d="M87.608 108.469H84.1504C86.2013 108.469 87.8639 110.131 87.8639 112.182V116.398C87.8639 118.449 86.2013 120.111 84.1504 120.111H87.608C89.6589 120.111 91.3215 118.449 91.3215 116.398V112.182C91.3224 110.131 89.6589 108.469 87.608 108.469Z" fill="#000072"/>
</g>
<g opacity="0.4">
<g opacity="0.4">
<path opacity="0.4" d="M84.3578 135.751C81.5935 135.751 79.3447 133.502 79.3447 130.738V126.522C79.3447 123.758 81.5935 121.509 84.3578 121.509H100.569C103.334 121.509 105.582 123.758 105.582 126.522V130.738C105.582 133.502 103.334 135.751 100.569 135.751H84.3578Z" fill="#FF6F48"/>
</g>
<g opacity="0.4">
<g opacity="0.4">
<path opacity="0.4" d="M100.568 122.808C102.619 122.808 104.282 124.471 104.282 126.522V130.737C104.282 132.788 102.619 134.45 100.568 134.45H84.3575C82.3065 134.45 80.644 132.788 80.644 130.737V126.522C80.644 124.471 82.3065 122.808 84.3575 122.808H100.568ZM100.568 120.21H84.3575C80.8772 120.21 78.0449 123.041 78.0449 126.523V130.738C78.0449 134.218 80.8763 137.05 84.3575 137.05H100.569C104.049 137.05 106.882 134.219 106.882 130.738V126.523C106.881 123.041 104.049 120.21 100.568 120.21Z" fill="#000072"/>
</g>
</g>
</g>
<g opacity="0.5">
<path opacity="0.5" d="M82.9496 131.89V127.675C82.9496 125.624 84.6121 123.962 86.6631 123.962H102.875C103.01 123.962 103.143 123.97 103.275 123.984C102.597 123.263 101.638 122.809 100.57 122.809H84.358C82.3071 122.809 80.6445 124.472 80.6445 126.523V130.738C80.6445 132.654 82.0956 134.23 83.9578 134.43C83.3344 133.764 82.9496 132.873 82.9496 131.89Z" fill="white"/>
</g>
<g opacity="0.3">
<path opacity="0.3" d="M100.568 122.808H97.1104C99.1613 122.808 100.824 124.471 100.824 126.522V130.737C100.824 132.788 99.1613 134.45 97.1104 134.45H100.568C102.619 134.45 104.281 132.788 104.281 130.737V126.522C104.282 124.471 102.62 122.808 100.568 122.808Z" fill="#000072"/>
</g>
</g>
<g opacity="0.4">
<path opacity="0.4" d="M97.6497 108.013H59.6164C58.8741 108.013 58.2715 107.412 58.2715 106.669C58.2715 105.927 58.8732 105.325 59.6164 105.325H97.6497C98.3921 105.325 98.9946 105.927 98.9946 106.669C98.9946 107.412 98.3921 108.013 97.6497 108.013Z" fill="#000072"/>
</g>
<g opacity="0.4">
<path opacity="0.4" d="M109.943 108.013H104.181C103.439 108.013 102.836 107.412 102.836 106.669C102.836 105.927 103.438 105.325 104.181 105.325H109.943C110.686 105.325 111.288 105.927 111.288 106.669C111.288 107.412 110.686 108.013 109.943 108.013Z" fill="#000072"/>
</g>
</g>
<path d="M70.7699 340H84.5312V336.45H75.0753V331.588H83.7855V328.038H75.0753V323.186H84.4915V319.636H70.7699V340ZM87.8349 340H92.0707V330.832C92.0707 329.142 93.1445 328.018 94.5565 328.018C95.9485 328.018 96.8832 328.973 96.8832 330.474V340H100.99V330.673C100.99 329.092 101.895 328.018 103.436 328.018C104.788 328.018 105.802 328.864 105.802 330.564V340H110.028V329.729C110.028 326.418 108.059 324.528 105.216 324.528C102.978 324.528 101.238 325.672 100.612 327.422H100.453C99.9656 325.652 98.4045 324.528 96.3065 324.528C94.2482 324.528 92.6871 325.622 92.0508 327.422H91.8718V324.727H87.8349V340ZM113.374 345.727H117.61V337.554H117.739C118.326 338.827 119.608 340.249 122.074 340.249C125.554 340.249 128.269 337.494 128.269 332.384C128.269 327.134 125.435 324.528 122.084 324.528C119.529 324.528 118.306 326.05 117.739 327.293H117.55V324.727H113.374V345.727ZM117.52 332.364C117.52 329.639 118.674 327.899 120.732 327.899C122.83 327.899 123.944 329.719 123.944 332.364C123.944 335.028 122.81 336.878 120.732 336.878C118.694 336.878 117.52 335.088 117.52 332.364ZM135.328 319.636H131.093V340H135.328V319.636ZM145.622 340.298C150.256 340.298 153.139 337.126 153.139 332.423C153.139 327.69 150.256 324.528 145.622 324.528C140.989 324.528 138.105 327.69 138.105 332.423C138.105 337.126 140.989 340.298 145.622 340.298ZM145.642 337.017C143.504 337.017 142.411 335.058 142.411 332.393C142.411 329.729 143.504 327.76 145.642 327.76C147.74 327.76 148.834 329.729 148.834 332.393C148.834 335.058 147.74 337.017 145.642 337.017ZM157.989 345.727C161.141 345.727 162.811 344.116 163.676 341.651L169.613 324.747L165.128 324.727L161.936 335.943H161.777L158.615 324.727H154.161L159.64 340.438L159.391 341.084C158.834 342.516 157.77 342.585 156.279 342.128L155.324 345.29C155.931 345.548 156.915 345.727 157.989 345.727ZM178.221 340.298C181.999 340.298 184.545 338.459 185.141 335.625L181.224 335.366C180.796 336.53 179.702 337.136 178.29 337.136C176.173 337.136 174.83 335.734 174.83 333.457V333.447H185.231V332.284C185.231 327.094 182.089 324.528 178.052 324.528C173.558 324.528 170.644 327.72 170.644 332.433C170.644 337.276 173.518 340.298 178.221 340.298ZM174.83 330.822C174.92 329.082 176.242 327.69 178.121 327.69C179.961 327.69 181.234 329.003 181.244 330.822H174.83ZM194.955 340.298C198.734 340.298 201.279 338.459 201.876 335.625L197.958 335.366C197.531 336.53 196.437 337.136 195.025 337.136C192.907 337.136 191.565 335.734 191.565 333.457V333.447H201.965V332.284C201.965 327.094 198.823 324.528 194.786 324.528C190.292 324.528 187.379 327.72 187.379 332.433C187.379 337.276 190.252 340.298 194.955 340.298ZM191.565 330.822C191.654 329.082 192.977 327.69 194.856 327.69C196.695 327.69 197.968 329.003 197.978 330.822H191.565ZM211.289 340H215.595V333.398H219.214C223.897 333.398 226.622 330.604 226.622 326.537C226.622 322.49 223.947 319.636 219.324 319.636H211.289V340ZM215.595 329.947V323.156H218.498C220.984 323.156 222.187 324.509 222.187 326.537C222.187 328.555 220.984 329.947 218.518 329.947H215.595ZM235.993 340.298C240.627 340.298 243.51 337.126 243.51 332.423C243.51 327.69 240.627 324.528 235.993 324.528C231.36 324.528 228.476 327.69 228.476 332.423C228.476 337.126 231.36 340.298 235.993 340.298ZM236.013 337.017C233.875 337.017 232.782 335.058 232.782 332.393C232.782 329.729 233.875 327.76 236.013 327.76C238.111 327.76 239.205 329.729 239.205 332.393C239.205 335.058 238.111 337.017 236.013 337.017ZM246.265 340H250.5V331.359C250.5 329.48 251.873 328.188 253.742 328.188C254.328 328.188 255.134 328.287 255.532 328.416V324.658C255.154 324.568 254.627 324.509 254.199 324.509C252.489 324.509 251.087 325.503 250.53 327.392H250.371V324.727H246.265V340ZM266.611 324.727H263.737V321.068H259.501V324.727H257.413V327.909H259.501V335.864C259.482 338.857 261.52 340.338 264.592 340.209C265.686 340.169 266.462 339.95 266.889 339.811L266.223 336.659C266.014 336.699 265.567 336.798 265.169 336.798C264.324 336.798 263.737 336.48 263.737 335.307V327.909H266.611V324.727ZM273.725 340.288C275.982 340.288 277.444 339.304 278.19 337.882H278.309V340H282.326V329.699C282.326 326.06 279.244 324.528 275.843 324.528C272.184 324.528 269.778 326.278 269.191 329.062L273.109 329.381C273.397 328.366 274.302 327.621 275.823 327.621C277.265 327.621 278.09 328.347 278.09 329.599V329.659C278.09 330.643 277.046 330.773 274.391 331.031C271.369 331.31 268.654 332.324 268.654 335.734C268.654 338.757 270.812 340.288 273.725 340.288ZM274.938 337.365C273.636 337.365 272.701 336.759 272.701 335.595C272.701 334.402 273.685 333.815 275.177 333.607C276.102 333.477 277.613 333.259 278.12 332.92V334.541C278.12 336.142 276.798 337.365 274.938 337.365ZM289.848 319.636H285.612V340H289.848V319.636Z" fill="black"/>
</svg>
