<svg width="199" height="31" viewBox="0 0 199 31" fill="none" xmlns="http://www.w3.org/2000/svg">
<path d="M8.55286 0H0V8.55286H8.55286V0Z" fill="#2C2C31"/>
<path d="M8.55286 10.8882H0V19.441H8.55286V10.8882Z" fill="#2C2C31"/>
<path d="M30.3224 0H21.7695V8.55286H30.3224V0Z" fill="#2C2C31"/>
<path d="M19.4386 0H10.8857V8.55286H19.4386V0Z" fill="#2C2C31"/>
<path d="M8.55286 20.9932H0V30.3236H8.55286V20.9932Z" fill="#2C2C31"/>
<path d="M19.4386 20.9932H10.8857V30.3236H19.4386V20.9932Z" fill="#2C2C31"/>
<path d="M30.3224 20.9932H21.7695V30.3236H30.3224V20.9932Z" fill="#2C2C31"/>
<path d="M19.6572 10.5097C18.5105 10.5222 17.4144 10.9835 16.604 11.7947C15.7935 12.6059 15.3332 13.7024 15.3218 14.849C15.312 14.9257 15.312 15.0034 15.3218 15.0801C15.392 16.182 15.8754 17.2168 16.6755 17.9777C17.4755 18.7386 18.5332 19.1695 19.6372 19.1844C20.497 19.2292 21.3442 18.9633 22.0241 18.4352C21.536 17.8148 21.1634 17.1116 20.9243 16.3592C20.7682 16.5387 20.5724 16.6794 20.3524 16.77C20.1325 16.8606 19.8944 16.8987 19.6572 16.8812C19.1355 16.8738 18.6362 16.6684 18.2603 16.3066C17.8845 15.9448 17.6602 15.4537 17.6329 14.9327V14.849C17.6412 14.3147 17.8571 13.8046 18.2349 13.4268C18.6128 13.0489 19.1229 12.833 19.6572 12.8248C20.4541 12.8248 20.6693 12.9961 20.9602 13.3667C21.3147 13.9379 21.5832 14.5582 21.7571 15.2076C22.0002 16.1125 22.3979 16.9685 22.9326 17.7379C23.3044 18.1979 23.7761 18.5671 24.3118 18.8177C24.8476 19.0683 25.4333 19.1937 26.0247 19.1844C27.1725 19.1781 28.2716 18.7193 29.0833 17.9076C29.895 17.096 30.3537 15.9969 30.36 14.849V14.7375C30.3638 14.6964 30.3638 14.655 30.36 14.6139C30.2898 13.5121 29.8064 12.4773 29.0064 11.7164C28.2063 10.9555 27.1486 10.5245 26.0446 10.5097C25.183 10.465 24.3342 10.7324 23.6538 11.2628C24.1193 11.8977 24.4897 12.5971 24.7536 13.3388C24.9127 13.1631 25.109 13.025 25.3282 12.9347C25.5474 12.8444 25.784 12.8041 26.0207 12.8168C26.5422 12.8233 27.0416 13.0285 27.4171 13.3906C27.7925 13.7527 28.0156 14.2444 28.0409 14.7653V14.849C28.0327 15.3823 27.8172 15.8913 27.4401 16.2684C27.063 16.6455 26.5539 16.861 26.0207 16.8693C25.2517 16.8693 25.0405 16.6979 24.7536 16.3273C24.3999 15.7557 24.1314 15.1355 23.9566 14.4864C23.7118 13.5786 23.307 12.7218 22.7612 11.9561C22.3866 11.4964 21.9127 11.1274 21.3751 10.8769C20.8375 10.6264 20.2502 10.5009 19.6572 10.5097Z" fill="#2C2C31"/>
<path d="M59.502 6.07868V22.3038H55.6718V12.5733L52.1553 22.3038H49.0644L45.5254 12.5502V22.3038H41.6953V6.07868H46.2198L50.6322 17.3114L54.9999 6.07868H59.502Z" fill="#2C2C31"/>
<path d="M61.4947 15.8553C61.4947 14.5148 61.756 13.3438 62.2786 12.3422C62.8162 11.3407 63.5553 10.5702 64.4961 10.0309C65.4517 9.49165 66.5418 9.222 67.7662 9.222C69.3341 9.222 70.6407 9.64573 71.6859 10.4932C72.7461 11.3407 73.4405 12.5348 73.769 14.0757H69.6925C69.349 13.0895 68.6846 12.5965 67.699 12.5965C66.9972 12.5965 66.4373 12.8815 66.0192 13.4516C65.6011 14.0063 65.392 14.8076 65.392 15.8553C65.392 16.9031 65.6011 17.7121 66.0192 18.2822C66.4373 18.8369 66.9972 19.1142 67.699 19.1142C68.6846 19.1142 69.349 18.6212 69.6925 17.635H73.769C73.4405 19.145 72.7461 20.3315 71.6859 21.1944C70.6257 22.0572 69.3192 22.4887 67.7662 22.4887C66.5418 22.4887 65.4517 22.219 64.4961 21.6797C63.5553 21.1404 62.8162 20.37 62.2786 19.3685C61.756 18.3669 61.4947 17.1959 61.4947 15.8553Z" fill="#2C2C31"/>
<path d="M84.9338 22.3038L79.6478 15.1388V22.3038H75.8177V6.07868H79.6478V13.1974L84.889 6.07868H89.3911L83.2987 14.0294L89.6151 22.3038H84.9338Z" fill="#2C2C31"/>
<path d="M93.3615 8.06637C92.6896 8.06637 92.1371 7.86606 91.704 7.46544C91.2859 7.04941 91.0769 6.54093 91.0769 5.94001C91.0769 5.32367 91.2859 4.81519 91.704 4.41457C92.1371 3.99854 92.6896 3.79053 93.3615 3.79053C94.0185 3.79053 94.5561 3.99854 94.9742 4.41457C95.4072 4.81519 95.6237 5.32367 95.6237 5.94001C95.6237 6.54093 95.4072 7.04941 94.9742 7.46544C94.5561 7.86606 94.0185 8.06637 93.3615 8.06637ZM95.2654 9.4069V22.3038H91.4353V9.4069H95.2654Z" fill="#2C2C31"/>
<path d="M105.656 9.26823C107.12 9.26823 108.284 9.7613 109.151 10.7474C110.032 11.7182 110.472 13.0587 110.472 14.769V22.3038H106.664V15.3006C106.664 14.4378 106.448 13.7675 106.015 13.2898C105.582 12.8122 104.999 12.5733 104.268 12.5733C103.536 12.5733 102.954 12.8122 102.521 13.2898C102.088 13.7675 101.871 14.4378 101.871 15.3006V22.3038H98.041V9.4069H101.871V11.1172C102.259 10.5471 102.782 10.1003 103.439 9.77671C104.096 9.43772 104.835 9.26823 105.656 9.26823Z" fill="#2C2C31"/>
<path d="M116.964 5.2004V22.3038H113.134V5.2004H116.964Z" fill="#2C2C31"/>
<path d="M131.521 15.6473C131.521 16.0171 131.498 16.4023 131.454 16.803H122.786C122.845 17.6042 123.092 18.2205 123.525 18.652C123.973 19.068 124.518 19.276 125.16 19.276C126.115 19.276 126.78 18.86 127.153 18.0279H131.23C131.021 18.8754 130.64 19.6381 130.087 20.3161C129.55 20.9941 128.87 21.5256 128.049 21.9109C127.228 22.2961 126.31 22.4887 125.294 22.4887C124.07 22.4887 122.98 22.219 122.024 21.6797C121.068 21.1404 120.322 20.37 119.784 19.3685C119.247 18.3669 118.978 17.1959 118.978 15.8553C118.978 14.5148 119.239 13.3438 119.762 12.3422C120.299 11.3407 121.046 10.5702 122.002 10.0309C122.957 9.49165 124.055 9.222 125.294 9.222C126.504 9.222 127.579 9.48395 128.519 10.0078C129.46 10.5317 130.192 11.279 130.715 12.2498C131.252 13.2205 131.521 14.353 131.521 15.6473ZM127.601 14.6073C127.601 13.9293 127.377 13.39 126.929 12.9894C126.481 12.5887 125.921 12.3884 125.249 12.3884C124.607 12.3884 124.062 12.581 123.614 12.9663C123.181 13.3515 122.912 13.8985 122.808 14.6073H127.601Z" fill="#2C2C31"/>
<path d="M146.308 9.4069L138.469 28.4286H134.348L137.215 21.8646L132.13 9.4069H136.408L139.298 17.4732L142.165 9.4069H146.308Z" fill="#2C2C31"/>
<path d="M160.459 22.3038L157.188 16.1789H156.27V22.3038H152.44V6.07868H158.868C160.108 6.07868 161.16 6.3021 162.026 6.74895C162.907 7.19579 163.564 7.81213 163.997 8.59796C164.431 9.36838 164.647 10.2313 164.647 11.1866C164.647 12.2652 164.348 13.2282 163.751 14.0757C163.169 14.9231 162.303 15.5241 161.153 15.8784L164.781 22.3038H160.459ZM156.27 13.3823H158.644C159.346 13.3823 159.869 13.2051 160.212 12.8507C160.571 12.4963 160.75 11.9955 160.75 11.3484C160.75 10.732 160.571 10.2467 160.212 9.89227C159.869 9.53788 159.346 9.36068 158.644 9.36068H156.27V13.3823Z" fill="#2C2C31"/>
<path d="M168.978 8.06637C168.306 8.06637 167.753 7.86606 167.32 7.46544C166.902 7.04941 166.693 6.54093 166.693 5.94001C166.693 5.32367 166.902 4.81519 167.32 4.41457C167.753 3.99854 168.306 3.79053 168.978 3.79053C169.635 3.79053 170.172 3.99854 170.59 4.41457C171.023 4.81519 171.24 5.32367 171.24 5.94001C171.24 6.54093 171.023 7.04941 170.59 7.46544C170.172 7.86606 169.635 8.06637 168.978 8.06637ZM170.881 9.4069V22.3038H167.051V9.4069H170.881Z" fill="#2C2C31"/>
<path d="M172.896 15.8553C172.896 14.5148 173.157 13.3438 173.68 12.3422C174.217 11.3407 174.956 10.5702 175.897 10.0309C176.853 9.49165 177.943 9.222 179.167 9.222C180.735 9.222 182.042 9.64573 183.087 10.4932C184.147 11.3407 184.841 12.5348 185.17 14.0757H181.093C180.75 13.0895 180.085 12.5965 179.1 12.5965C178.398 12.5965 177.838 12.8815 177.42 13.4516C177.002 14.0063 176.793 14.8076 176.793 15.8553C176.793 16.9031 177.002 17.7121 177.42 18.2822C177.838 18.8369 178.398 19.1142 179.1 19.1142C180.085 19.1142 180.75 18.6212 181.093 17.635H185.17C184.841 19.145 184.147 20.3315 183.087 21.1944C182.027 22.0572 180.72 22.4887 179.167 22.4887C177.943 22.4887 176.853 22.219 175.897 21.6797C174.956 21.1404 174.217 20.37 173.68 19.3685C173.157 18.3669 172.896 17.1959 172.896 15.8553Z" fill="#2C2C31"/>
<path d="M199 15.6473C199 16.0171 198.978 16.4023 198.933 16.803H190.265C190.324 17.6042 190.571 18.2205 191.004 18.652C191.452 19.068 191.997 19.276 192.639 19.276C193.595 19.276 194.259 18.86 194.632 18.0279H198.709C198.5 18.8754 198.119 19.6381 197.567 20.3161C197.029 20.9941 196.35 21.5256 195.528 21.9109C194.707 22.2961 193.789 22.4887 192.773 22.4887C191.549 22.4887 190.459 22.219 189.503 21.6797C188.548 21.1404 187.801 20.37 187.263 19.3685C186.726 18.3669 186.457 17.1959 186.457 15.8553C186.457 14.5148 186.718 13.3438 187.241 12.3422C187.779 11.3407 188.525 10.5702 189.481 10.0309C190.436 9.49165 191.534 9.222 192.773 9.222C193.983 9.222 195.058 9.48395 195.999 10.0078C196.939 10.5317 197.671 11.279 198.194 12.2498C198.731 13.2205 199 14.353 199 15.6473ZM195.08 14.6073C195.08 13.9293 194.856 13.39 194.408 12.9894C193.96 12.5887 193.4 12.3884 192.729 12.3884C192.086 12.3884 191.541 12.581 191.093 12.9663C190.66 13.3515 190.392 13.8985 190.287 14.6073H195.08Z" fill="#2C2C31"/>
</svg>
