<svg width="26" height="26" viewBox="0 0 26 26" fill="none" xmlns="http://www.w3.org/2000/svg">
<path d="M7.32376 0.0170898H0V7.34085H7.32376V0.0170898Z" fill="#2C2C31"/>
<path d="M7.32376 9.33936H0V16.6631H7.32376V9.33936Z" fill="#2C2C31"/>
<path d="M25.9663 0.0170898H18.6426V7.34085H25.9663V0.0170898Z" fill="#2C2C31"/>
<path d="M16.6441 0.0170898H9.32031V7.34085H16.6441V0.0170898Z" fill="#2C2C31"/>
<path d="M7.32376 17.9937H0V25.9832H7.32376V17.9937Z" fill="#2C2C31"/>
<path d="M16.6441 17.9937H9.32031V25.9832H16.6441V17.9937Z" fill="#2C2C31"/>
<path d="M25.9663 17.9937H18.6426V25.9832H25.9663V17.9937Z" fill="#2C2C31"/>
<path d="M16.8319 9.01683C15.8501 9.02749 14.9115 9.4225 14.2175 10.1171C13.5235 10.8118 13.1294 11.7507 13.1196 12.7326C13.1112 12.7983 13.1112 12.8648 13.1196 12.9305C13.1797 13.874 13.5936 14.7601 14.2787 15.4116C14.9638 16.0632 15.8695 16.4322 16.8149 16.4449C17.551 16.4833 18.2765 16.2556 18.8587 15.8034C18.4407 15.2721 18.1217 14.67 17.917 14.0257C17.7833 14.1794 17.6156 14.2999 17.4273 14.3775C17.2389 14.4551 17.0351 14.4877 16.8319 14.4727C16.3852 14.4664 15.9577 14.2905 15.6358 13.9807C15.314 13.6709 15.1219 13.2503 15.0986 12.8042V12.7326C15.1056 12.275 15.2905 11.8382 15.6141 11.5147C15.9376 11.1912 16.3744 11.0063 16.8319 10.9992C17.5143 10.9992 17.6986 11.1459 17.9477 11.4633C18.2513 11.9524 18.4812 12.4835 18.6301 13.0396C18.8383 13.8144 19.1788 14.5475 19.6366 15.2063C19.955 15.6001 20.3589 15.9163 20.8177 16.1309C21.2764 16.3455 21.778 16.4529 22.2844 16.4449C23.2673 16.4395 24.2084 16.0467 24.9034 15.3516C25.5985 14.6566 25.9913 13.7155 25.9967 12.7326V12.637C26 12.6018 26 12.5664 25.9967 12.5312C25.9366 11.5877 25.5227 10.7016 24.8376 10.0501C24.1525 9.39853 23.2468 9.02953 22.3014 9.01683C21.5637 8.97853 20.8368 9.20749 20.2542 9.6617C20.6528 10.2054 20.97 10.8042 21.1959 11.4394C21.3322 11.2889 21.5003 11.1707 21.688 11.0933C21.8757 11.016 22.0783 10.9815 22.281 10.9924C22.7276 10.998 23.1552 11.1737 23.4767 11.4837C23.7981 11.7938 23.9892 12.2148 24.0109 12.6609V12.7326C24.0038 13.1892 23.8193 13.6251 23.4964 13.948C23.1735 14.2709 22.7376 14.4554 22.281 14.4625C21.6224 14.4625 21.4416 14.3158 21.1959 13.9984C20.8931 13.5089 20.6632 12.9779 20.5135 12.4221C20.3039 11.6447 19.9572 10.911 19.4899 10.2554C19.1691 9.86172 18.7633 9.54579 18.303 9.33128C17.8426 9.11678 17.3397 9.00927 16.8319 9.01683Z" fill="#2C2C31"/>
</svg>
