<svg width="17" height="16" viewBox="0 0 17 16" fill="none" xmlns="http://www.w3.org/2000/svg">
<path d="M14.6863 0.320312H2.04168C1.26544 0.320312 0.636719 0.917596 0.636719 1.65502V13.6674C0.636719 14.4048 1.26544 15.0021 2.04168 15.0021H14.6863C15.4625 15.0021 16.0913 14.4048 16.0913 13.6674V1.65502C16.0913 0.917596 15.4625 0.320312 14.6863 0.320312ZM12.3541 5.65181C12.3583 5.73857 12.3604 5.82599 12.3604 5.91342C12.3604 8.58484 10.2199 11.6654 6.30573 11.6654C5.10379 11.6654 3.98544 11.331 3.04341 10.7571C3.2099 10.7758 3.3799 10.7851 3.55131 10.7851C4.54812 10.7851 5.46556 10.4621 6.19403 9.91955C5.26255 9.90287 4.47717 9.31826 4.20602 8.51544C4.33598 8.53879 4.46945 8.55147 4.60643 8.55147C4.80102 8.55147 4.98858 8.52678 5.16771 8.48073C4.19407 8.29521 3.46069 7.47837 3.46069 6.49869C3.46069 6.49001 3.46069 6.482 3.46069 6.47333C3.748 6.62482 4.07536 6.71558 4.42449 6.72626C3.85337 6.36388 3.47825 5.74524 3.47825 5.04385C3.47825 4.6728 3.58362 4.32578 3.76626 4.02747C4.81577 5.25073 6.3837 6.05556 8.15255 6.13965C8.11672 5.99217 8.09775 5.83734 8.09775 5.67918C8.09775 4.56269 9.05102 3.65776 10.2256 3.65776C10.8374 3.65776 11.391 3.90334 11.7787 4.29642C12.2635 4.20566 12.7194 4.03748 13.1303 3.80591C12.9716 4.27773 12.6344 4.67414 12.1946 4.9244C12.6252 4.87568 13.0355 4.7669 13.4169 4.60607C13.131 5.01049 12.7699 5.36619 12.3541 5.65181Z" fill="#222222"/>
</svg>
